<?xml version="1.0" standalone="no"?>
<!DOCTYPE svg PUBLIC "-//W3C//DTD SVG 1.1//EN" "http://www.w3.org/Graphics/SVG/1.1/DTD/svg11.dtd" >
<svg xmlns="http://www.w3.org/2000/svg" xmlns:xlink="http://www.w3.org/1999/xlink" version="1.1">
<metadata>
Created by FontForge 20201107 at Sun Dec 12 14:07:55 2021
 By Andrew

</metadata>
<defs>
<font id="DSCLogo" horiz-adv-x="1319" >
  <font-face 
    font-family="DSCLogo"
    font-weight="400"
    font-stretch="normal"
    units-per-em="2048"
    panose-1="2 0 5 3 0 0 0 0 0 0"
    ascent="1638"
    descent="-410"
    x-height="1413"
    cap-height="1912"
    bbox="-340 -901 2562 2086"
    underline-thickness="150"
    underline-position="-292"
    unicode-range="U+0020-FB00"
  />
    <missing-glyph />
    <glyph glyph-name="A" unicode="A" horiz-adv-x="1477" 
d="M424 575l-221 -578h-245l745 2089l746 -2089h-245l-222 578h-558zM703 1370l-191 -546h382z" />
    <glyph glyph-name="B" unicode="B" horiz-adv-x="1569" 
d="M703 1081v3h-416v-881h496c116 0 214 48 300 128c93 87 137 189 137 311c0 123 -44 224 -137 311c-91 85 -198 128 -326 128h-54zM287 1661v-328h362c48 7 83 23 111 46c38 33 58 72 58 128c0 59 -21 100 -61 124c-30 19 -80 30 -149 30h-321zM840 -41v-7h-779v1960h649
v-7c97 -14 180 -52 243 -116c73 -75 110 -170 110 -280c0 -88 -23 -170 -71 -238c99 -33 188 -86 262 -160c126 -131 189 -294 189 -480c0 -185 -63 -348 -189 -479c-112 -110 -253 -175 -414 -193z" />
    <glyph glyph-name="C" unicode="C" horiz-adv-x="2009" 
d="M253 327c-133 180 -202 382 -202 601c0 43 2 87 8 132c32 269 153 491 368 659c183 140 388 210 612 210c45 0 90 -2 136 -8c130 -17 253 -58 366 -121l62 -35l-189 -190l-32 16c-76 37 -155 59 -239 70c-35 4 -70 8 -103 8c-168 0 -319 -52 -458 -157
c-167 -127 -261 -288 -287 -492c-5 -34 -7 -98 -7 -100c0 -163 54 -308 162 -444c129 -162 296 -255 505 -281c35 -4 102 -7 104 -7c168 0 319 51 458 156c138 105 226 237 269 399l10 37h243l-14 -61c-49 -230 -165 -421 -353 -568c-182 -139 -387 -208 -611 -208
c-45 0 -90 3 -136 9c-276 34 -503 160 -672 375z" />
    <glyph glyph-name="D" unicode="D" horiz-adv-x="1309" 
d="M257 1713v-1561c203 0 372 86 514 227c155 153 230 336 230 555c0 218 -74 401 -224 559c-79 82 -168 141 -270 177c-76 27 -160 43 -250 43zM31 -43v1960h212c302 0 551 -110 729 -284c174 -192 257 -430 257 -699c0 -270 -83 -506 -261 -693
c-180 -167 -415 -284 -696 -284h-241z" />
    <glyph glyph-name="E" unicode="E" horiz-adv-x="1295" 
d="M30 1912h1168v-251h-942v-880h303v-250h-303v-328h942v-251h-1168v1960z" />
    <glyph glyph-name="F" unicode="F" horiz-adv-x="929" 
d="M298 1661v-880h355v-250h-355v-579h-227v1960h828v-251h-601z" />
    <glyph glyph-name="G" unicode="G" horiz-adv-x="2143" 
d="M273 327c-133 180 -202 382 -202 601c0 43 2 87 8 132c32 269 153 491 368 659c183 140 388 210 612 210c45 0 90 -2 136 -8c130 -17 252 -58 366 -121l63 -35l-189 -190l-32 16c-76 37 -156 59 -240 70c-35 4 -70 8 -103 8c-167 0 -318 -52 -458 -159
c-166 -128 -260 -293 -287 -499c-5 -34 -7 -99 -7 -101c0 -166 54 -317 162 -455c129 -172 296 -271 505 -298c36 -4 102 -7 104 -7c168 0 320 55 458 166c77 62 138 133 185 213h-460v250h797l-14 -61c-49 -230 -165 -421 -353 -567c-182 -138 -387 -208 -611 -208
c-45 0 -90 3 -136 9c-276 34 -503 160 -672 375z" />
    <glyph glyph-name="H" unicode="H" horiz-adv-x="1391" 
d="M1223 1912v-1960h-226v579h-716v-579h-226v1960h226v-1131h716v1131h226z" />
    <glyph glyph-name="I" unicode="I" horiz-adv-x="426" 
d="M257 -48h-226v1960h226v-1960z" />
    <glyph glyph-name="J" unicode="J" horiz-adv-x="649" 
d="M111 -109c70 32 102 88 102 173v1856h228v-1862c0 -68 -11 -130 -31 -186c-26 -73 -67 -134 -125 -179c-71 -56 -187 -84 -313 -84c-53 0 -98 5 -136 14c-49 13 -96 34 -137 62l-39 28l118 221l43 -36c18 -15 37 -26 58 -32c25 -6 54 -9 82 -9c51 0 101 11 150 34z" />
    <glyph glyph-name="K" unicode="K" horiz-adv-x="1727" 
d="M1356 834c200 -204 297 -451 297 -738v-144h-227v152c0 234 -80 431 -245 599c-103 103 -216 173 -344 212l-551 -963h-205v1960h226v-1527l895 1527h260l-483 -835c148 -50 276 -132 377 -243z" />
    <glyph glyph-name="L" unicode="L" horiz-adv-x="968" 
d="M318 203h601v-251h-828v1960h227v-1709z" />
    <glyph glyph-name="M" unicode="M" horiz-adv-x="1905" 
d="M1601 1912h131v-1960h-233v1388l-582 -1036l-611 1042v-1394h-233v1960h133l709 -1219z" />
    <glyph glyph-name="N" unicode="N" horiz-adv-x="1401" 
d="M988 525v1387h240v-1960h-131l-811 1365v-1365h-226v1948h127z" />
    <glyph glyph-name="O" unicode="O" horiz-adv-x="2289" 
d="M1672 1490c-159 156 -348 231 -573 231c-223 0 -411 -75 -570 -231c-160 -156 -237 -337 -237 -554c0 -218 77 -401 237 -555c159 -154 347 -230 570 -230c225 0 414 76 573 230s236 337 236 555c0 217 -77 398 -236 554zM1848 1676c198 -204 296 -453 296 -740
c0 -288 -90 -537 -296 -741c-202 -200 -437 -307 -749 -307s-542 103 -748 307c-202 200 -297 453 -297 741c0 287 99 536 297 741c206 204 458 307 748 307c291 0 544 -103 749 -308z" />
    <glyph glyph-name="P" unicode="P" horiz-adv-x="1531" 
d="M282 1661v-881h416v3h54c128 0 235 43 326 128c93 87 137 188 137 311c0 122 -44 224 -137 311c-86 80 -183 128 -300 128h-496zM1249 1709c126 -133 189 -299 189 -487c0 -189 -63 -354 -189 -487c-112 -111 -253 -177 -414 -195v-9h-553v-579h-226v1960h779v-7
c161 -18 302 -85 414 -196z" />
    <glyph glyph-name="Q" unicode="Q" horiz-adv-x="2338" 
d="M376 1680c206 204 458 307 748 307c291 0 543 -104 749 -307c198 -203 296 -451 296 -738s-98 -535 -296 -738c-73 -71 -150 -132 -235 -179c8 -1 14 -1 23 -1c25 0 54 5 84 12c73 18 126 55 165 117c7 11 12 21 17 32l26 60l193 -162c-12 -20 -24 -41 -36 -61
c-68 -118 -170 -195 -306 -228c-44 -11 -86 -16 -129 -16c-76 0 -151 17 -220 51c-14 6 -28 14 -41 21c-32 19 -61 39 -86 60c-66 -13 -134 -19 -204 -19c-144 0 -278 26 -402 80c-63 25 -122 56 -179 93c-59 39 -114 84 -167 137c-198 203 -297 452 -297 740
c0 287 99 535 297 739zM985 193c-29 0 -66 -8 -94 -16c73 -22 150 -33 233 -33h15c-6 4 -13 8 -20 12c-45 25 -88 37 -134 37zM1703 286c160 166 239 364 239 599c0 233 -78 432 -239 599s-351 249 -579 249c-225 0 -415 -83 -576 -250s-240 -365 -240 -598
c0 -235 79 -433 240 -599c29 -29 57 -56 86 -80c62 55 137 93 222 113c44 11 86 15 127 15c77 0 151 -17 220 -50c14 -6 29 -14 42 -21c36 -21 125 -89 179 -170c102 41 194 105 279 193z" />
    <glyph glyph-name="R" unicode="R" horiz-adv-x="1539" 
d="M262 1661v-881h418v3h54c129 0 236 43 327 128c93 87 134 188 134 311c0 122 -41 224 -134 311c-86 80 -184 128 -301 128h-498zM1036 619l380 -667h-261l-371 579h-522v-579h-226v1960h782v-7c161 -18 302 -83 411 -193c126 -131 189 -294 189 -479
c0 -186 -63 -349 -189 -480c-54 -57 -120 -101 -193 -134z" />
    <glyph glyph-name="S" unicode="S" horiz-adv-x="1104" 
d="M943 1629c-46 46 -98 67 -156 67h-9c-68 0 -123 -25 -170 -69c-48 -45 -59 -135 -69 -156c0 -7 2 -24 6 -46c5 -28 11 -68 23 -115c67 -250 139 -498 205 -748c23 -85 32 -140 32 -177c0 -125 -54 -237 -150 -327c-102 -97 -226 -148 -378 -148c-127 0 -228 47 -312 137
l-34 38l166 188l35 -37c45 -46 96 -67 155 -67h9c68 0 122 25 169 69s70 95 70 156c0 18 -6 73 -28 152c-84 301 -151 526 -190 684c-17 70 -30 127 -38 170c-7 35 -10 59 -10 80c0 125 51 236 148 327c102 97 226 148 378 148c128 0 229 -47 314 -137l35 -38l-167 -188z
" />
    <glyph glyph-name="T" unicode="T" horiz-adv-x="898" 
d="M273 -48v1709h-302v251h830v-251h-302v-1709h-226z" />
    <glyph glyph-name="U" unicode="U" horiz-adv-x="1498" 
d="M1127 544v1369h226v-1432h-6c-15 -149 -70 -281 -163 -391c-1 -1 -2 -3 -4 -4c-117 -104 -418 -183 -443 -183h-2c0 1 3 2 7 4h-93c-158 0 -307 62 -439 179l-4 4c-104 123 -172 270 -172 440v1383h225v-1343c0 -120 45 -220 122 -304c96 -77 240 -99 271 -112h86
c85 0 176 35 272 112c71 79 117 169 117 278z" />
    <glyph glyph-name="V" unicode="V" horiz-adv-x="1458" 
d="M693 -174l-745 2089h245l500 -1427l501 1427h245z" />
    <glyph glyph-name="W" unicode="W" horiz-adv-x="2566" 
d="M993 -140l-1016 2054h251l764 -1568l172 378l-521 1190h251l710 -1568l709 1568h249l-958 -2054l-305 675z" />
    <glyph glyph-name="X" unicode="X" horiz-adv-x="1720" 
d="M844 393l-279 -441h-261l381 656l-739 1304h262l636 -1124l636 1124h262l-740 -1304l383 -656h-261z" />
    <glyph glyph-name="Y" unicode="Y" horiz-adv-x="1720" 
d="M968 -48h-246v643l-776 1317h262l637 -1124l636 1124h262l-775 -1317v-643z" />
    <glyph glyph-name="Z" unicode="Z" horiz-adv-x="1423" 
d="M368 204h934v-252h-1293v69l927 1640h-927v251h1325z" />
    <glyph glyph-name="numbersign" unicode="#" horiz-adv-x="1120" 
d="M203 1249v303h221v-303h153v303h221v-303h274v-244h-274v-169h274v-244h-274v-304h-221v304h-153v-304h-221v304h-274v244h274v169h-274v244h274zM577 836v169h-153v-169h153z" />
    <glyph glyph-name="dollar" unicode="$" horiz-adv-x="915" 
d="M247 1507v226h296v-223c13 -2 27 -5 40 -9c90 -36 158 -104 199 -196c24 -53 36 -107 36 -164c0 -32 -6 -67 -16 -111l-12 -58l-220 86c5 20 16 67 16 83c0 21 -6 41 -18 62c-11 19 -26 32 -43 44c-22 15 -60 30 -98 30c-21 0 -42 -5 -66 -13s-41 -19 -54 -32
c-11 -11 -20 -23 -28 -39c-7 -16 -9 -42 -10 -44c0 -18 6 -35 16 -53c166 -212 327 -423 448 -637c27 -47 35 -99 35 -152c0 -39 -7 -78 -20 -117c-31 -94 -93 -162 -180 -203c-9 -3 -16 -6 -25 -9v-225h-296v222c-13 2 -28 5 -41 9c-90 36 -159 104 -199 196
c-23 53 -35 108 -35 165c0 30 5 66 14 110l12 58l219 -85c-4 -21 -13 -67 -13 -84c0 -21 5 -41 17 -62c11 -19 26 -33 42 -45c13 -8 29 -16 48 -22c17 -4 35 -6 51 -6c21 0 42 4 66 12c24 9 41 19 54 32c19 19 39 53 39 83c0 18 -5 36 -17 52c-165 213 -327 424 -448 638
c-27 47 -35 99 -35 152c0 39 7 78 20 117c33 101 102 171 206 212z" />
    <glyph glyph-name="percent" unicode="%" horiz-adv-x="2143" 
d="M254 -39l1283 1979l258 -55l-1284 -1978zM633 1515c-46 47 -97 69 -162 69c-64 0 -116 -22 -162 -69s-66 -98 -66 -163c0 -69 21 -126 66 -172c46 -46 97 -68 162 -68c66 0 116 22 162 68s67 103 67 172c0 65 -21 116 -67 163zM797 1011c-89 -92 -200 -140 -326 -140
s-234 48 -318 140s-127 208 -127 338c0 129 43 244 127 336s192 140 318 140c51 0 100 -7 147 -23c67 -23 127 -61 180 -116c47 -47 80 -102 102 -162c21 -55 32 -113 32 -175c0 -130 -46 -246 -135 -338zM1740 705c-46 47 -97 70 -162 70s-116 -23 -162 -70
s-67 -100 -67 -165c0 -69 21 -123 67 -169s97 -68 162 -68s116 22 162 68c45 46 66 100 66 169c0 65 -20 118 -66 165zM1896 202c-73 -82 -299 -143 -320 -143h-2c0 1 1 2 4 3c-126 0 -237 48 -326 140s-135 207 -135 337c0 129 47 245 135 337c123 128 275 139 326 139
s100 -7 147 -23c66 -23 123 -60 172 -115c44 -47 75 -102 97 -162c19 -55 29 -114 29 -176c0 -130 -43 -245 -127 -337z" />
    <glyph glyph-name="ampersand" unicode="&#x26;" 
d="M1037 1138h215v-58c-4 -41 -19 -82 -34 -122c-31 -86 -84 -155 -154 -201c25 -70 36 -145 36 -225c0 -173 -57 -325 -167 -447s-247 -185 -404 -185c-156 0 -293 63 -403 185c-111 122 -169 274 -169 447c0 172 58 324 169 447c34 39 72 71 111 97c-4 5 -8 10 -13 15
c-84 92 -127 208 -127 338c0 129 43 244 127 336s187 140 305 140c48 0 93 -7 137 -23c62 -23 119 -61 168 -116c44 -47 75 -102 97 -162c19 -55 29 -113 29 -175c0 -114 -32 -216 -95 -301l-36 -47l-151 173l25 36c27 40 40 85 40 140c0 65 -20 118 -63 165s-91 69 -152 69
c-60 0 -108 -22 -151 -69s-63 -100 -63 -165c0 -69 20 -124 63 -170c40 -43 85 -70 140 -70h47v-268h-47c-93 0 -169 -42 -236 -116c-70 -78 -104 -167 -104 -274c0 -108 34 -197 103 -274s150 -114 248 -114c99 0 180 37 249 114s103 166 103 274c0 57 -10 109 -29 157
c-21 -3 -39 -8 -55 -15c-25 -12 -44 -26 -59 -45c-19 -24 -38 -64 -43 -103l-5 -47h-211v59c0 42 14 84 29 125c22 59 53 110 93 151c29 29 64 54 102 73l-9 10l86 22c15 4 31 6 47 8c10 2 21 2 31 2c23 0 50 6 72 17c25 12 44 27 59 46c12 15 23 33 32 55
c10 30 12 56 17 91z" />
    <glyph glyph-name="quotesingle" unicode="'" horiz-adv-x="223" 
d="M-70 1207v726h220v-726h-220z" />
    <glyph glyph-name="parenleft" unicode="(" horiz-adv-x="465" 
d="M392 -653v-248h-65c-125 15 -225 63 -293 151c-65 83 -97 184 -97 298v1988c0 114 32 215 97 298c68 88 168 136 293 151h65v-248l-42 -6c-46 -7 -80 -18 -106 -32c-20 -12 -33 -23 -42 -36c-27 -38 -39 -73 -39 -109v-2024c0 -36 12 -71 39 -109c9 -13 22 -24 42 -36
c26 -14 60 -25 106 -32z" />
    <glyph glyph-name="parenright" unicode=")" horiz-adv-x="465" 
d="M-63 1737v248h65c125 -15 225 -63 293 -151c65 -83 97 -184 97 -298v-1988c0 -114 -32 -215 -97 -298c-68 -88 -168 -136 -293 -151h-65v248l42 6c46 7 80 18 106 32c20 12 33 23 42 36c27 38 39 73 39 109v2024c0 36 -12 71 -39 109c-9 13 -22 24 -42 36
c-26 14 -60 25 -106 32z" />
    <glyph glyph-name="asterisk" unicode="*" horiz-adv-x="865" 
d="M313 1938h112v-317l164 268l159 -176l-242 -180h286v-126h-286l242 -180l-159 -176l-164 268v-317h-112v317l-164 -268l-159 176l242 180h-286v126h286l-242 180l159 176l164 -268v317z" />
    <glyph glyph-name="plus" unicode="+" horiz-adv-x="1120" 
d="M390 856v434h220v-434h392v-244h-392v-433h-220v433h-393v244h393z" />
    <glyph glyph-name="comma" unicode="," horiz-adv-x="216" 
d="M144 265v-54c0 -183 -77 -346 -217 -485l-45 -44l-113 220l26 28c87 95 127 188 127 282v53h222z" />
    <glyph glyph-name="hyphen" unicode="-" horiz-adv-x="754" 
d="M-57 793h739v-244h-739v244z" />
    <glyph glyph-name="period" unicode="." horiz-adv-x="318" 
d="M89 287c27 0 52 -8 76 -22c44 -26 81 -81 81 -151s-36 -125 -79 -151c-24 -15 -50 -22 -78 -22c-64 0 -113 40 -137 87c-13 26 -20 56 -20 86c0 70 37 125 81 151c24 14 49 22 76 22z" />
    <glyph glyph-name="slash" unicode="/" horiz-adv-x="946" 
d="M962 1948l-901 -2135l-201 103l901 2135z" />
    <glyph glyph-name="zero" unicode="0" 
d="M1081 1088v-680c0 -122 -42 -230 -126 -316c-73 -76 -332 -133 -357 -133h-2s2 2 6 3c-147 0 -270 44 -354 130s-126 195 -126 317v680c0 122 42 229 126 315s207 130 354 130c60 0 117 -8 170 -23c77 -22 135 -58 184 -108c44 -44 76 -95 97 -151
c19 -50 28 -106 28 -164zM790 1230c-53 43 -113 64 -189 64c-75 0 -135 -21 -188 -64c-52 -43 -74 -89 -74 -148v-663c0 -63 22 -112 74 -154c53 -42 113 -62 188 -62c76 0 136 20 189 62c52 42 74 91 74 154v663c0 59 -22 105 -74 148z" />
    <glyph glyph-name="one" unicode="1" horiz-adv-x="1221" 
d="M543 -43v1041h-173l400 714v-1755h-227z" />
    <glyph glyph-name="two" unicode="2" horiz-adv-x="1320" 
d="M552 212h565v-250h-993l572 904c44 70 76 125 94 163c13 26 19 45 19 48v23c0 49 -19 90 -65 129c-53 44 -114 64 -187 64s-133 -22 -185 -69c-11 -11 -19 -19 -26 -30l-33 -51l-158 175c20 26 37 51 60 76c84 92 197 140 342 140c59 0 115 -7 168 -22
c77 -21 146 -59 197 -108c44 -44 77 -93 97 -149c4 -8 7 -19 10 -27c13 -43 20 -88 20 -135v-2c0 -95 -41 -182 -91 -270z" />
    <glyph glyph-name="three" unicode="3" 
d="M673 1285h-273v250h704l-278 -468c78 -28 148 -72 203 -129c110 -115 167 -255 167 -416c0 -162 -57 -304 -167 -418c-117 -114 -274 -172 -455 -172c-176 0 -330 60 -438 176c-3 3 -4 5 -7 8c-34 38 -63 77 -87 119l-21 36l167 185l30 -69c13 -29 30 -57 54 -83
c6 -5 11 -11 16 -16c80 -76 173 -112 286 -112s206 34 286 103s116 149 116 248c0 98 -36 178 -116 248c-60 51 -127 82 -203 96c-27 4 -54 6 -83 6c-24 0 -48 -1 -70 -4l-115 -15c94 142 190 285 284 427z" />
    <glyph glyph-name="four" unicode="4" horiz-adv-x="1320" 
d="M1148 240h-151v-283h-227v317h-678l905 1460v-1244h151v-250zM516 490h226v362z" />
    <glyph glyph-name="five" unicode="5" 
d="M179 986l340 549h493v-250h-333l-121 -149h18c181 0 338 -60 455 -177c110 -117 167 -261 167 -425c0 -165 -57 -309 -167 -426c-117 -117 -274 -176 -455 -176c-180 0 -335 62 -445 184c-35 39 -65 79 -90 123l-21 38l172 172l28 -63c16 -35 38 -68 70 -98
c80 -76 173 -112 286 -112s205 35 285 105s117 153 117 253s-37 182 -117 253s-245 90 -285 105c-70 0 -133 -15 -187 -42l-35 -18z" />
    <glyph glyph-name="six" unicode="6" 
d="M413 265c53 -42 114 -62 189 -62s136 20 189 62c54 42 74 88 74 146c0 61 -21 108 -74 149s-114 61 -189 61s-135 -20 -188 -61l-36 -33c-28 -34 -39 -70 -39 -116c0 -58 20 -104 74 -146zM162 604l601 930h276l-426 -680c142 0 262 -46 343 -130
c84 -86 126 -194 126 -316s-42 -230 -126 -316c-74 -77 -333 -133 -358 -133h-2s2 2 6 3c-60 0 -117 7 -170 22c-78 22 -135 59 -184 109c-44 45 -77 96 -97 152c-20 50 -29 106 -29 164c0 69 14 135 42 194z" />
    <glyph glyph-name="seven" unicode="7" horiz-adv-x="1321" 
d="M842 1284h-564v250h979l-970 -1572h-266z" />
    <glyph glyph-name="eight" unicode="8" 
d="M790 1232c-53 42 -113 62 -189 62c-75 0 -135 -20 -188 -62s-74 -89 -74 -147c0 -61 22 -108 74 -149c53 -41 113 -61 188 -61c76 0 136 20 189 61c52 41 74 88 74 149c0 58 -21 105 -74 147zM790 559c-53 42 -113 62 -189 62c-75 0 -135 -20 -188 -62s-74 -88 -74 -146
c0 -61 22 -108 74 -149c53 -41 113 -61 188 -61c76 0 136 20 189 61c52 41 74 88 74 149c0 58 -21 104 -74 146zM955 92c-73 -76 -332 -133 -357 -133h-2s2 2 6 3c-147 0 -270 44 -354 130s-126 195 -126 317s42 229 126 315c9 8 17 17 26 24c-9 7 -17 16 -26 24
c-84 86 -126 195 -126 317s42 229 126 315s207 130 354 130c60 0 117 -8 170 -23c77 -22 135 -58 184 -108c44 -44 76 -95 97 -151c19 -50 28 -106 28 -164c0 -122 -42 -230 -126 -316c-8 -8 -16 -17 -25 -24c9 -7 17 -16 26 -24c43 -45 76 -96 97 -152
c19 -50 28 -106 28 -164c0 -122 -42 -230 -126 -316z" />
    <glyph glyph-name="nine" unicode="9" 
d="M791 1231c-53 42 -114 62 -189 62s-136 -20 -189 -62c-54 -42 -74 -88 -74 -146c0 -61 21 -108 74 -149s114 -61 189 -61c74 0 134 19 187 59l4 4l33 31c28 34 39 70 39 116c0 58 -20 104 -74 146zM1042 892l-618 -930h-259l426 680c-142 0 -262 46 -343 130
c-84 86 -126 195 -126 317s42 229 126 315s208 130 354 130c60 0 117 -7 170 -22c78 -22 135 -59 184 -109c44 -45 77 -96 97 -152c20 -50 29 -106 29 -164c0 -69 -14 -135 -42 -194z" />
    <glyph glyph-name="colon" unicode=":" horiz-adv-x="318" 
d="M89 274c27 0 52 -8 76 -22c44 -26 81 -81 81 -151s-36 -125 -79 -151c-24 -15 -50 -22 -78 -22c-64 0 -113 40 -137 87c-13 26 -20 56 -20 86c0 70 37 125 81 151c24 14 49 22 76 22zM89 808c27 0 52 -8 76 -22c44 -26 81 -81 81 -151s-36 -125 -79 -151
c-24 -15 -50 -22 -78 -22c-64 0 -113 40 -137 87c-13 26 -20 56 -20 86c0 70 37 125 81 151c24 14 49 22 76 22z" />
    <glyph glyph-name="semicolon" unicode=";" horiz-adv-x="384" 
d="M147 817c27 0 52 -8 76 -22c44 -26 81 -81 81 -151s-36 -126 -79 -152c-24 -15 -50 -22 -78 -22c-64 0 -113 41 -137 88c-13 26 -20 56 -20 86c0 70 37 125 81 151c24 14 49 22 76 22zM-10 110c0 70 37 125 81 151c24 14 49 22 76 22s52 -8 76 -22c28 -16 49 -41 64 -71
c17 -34 25 -75 25 -117v-3c-18 -167 -97 -316 -233 -452l-45 -44l-113 219l27 29c48 51 81 102 101 152c-15 14 -29 31 -39 50c-13 26 -20 56 -20 86z" />
    <glyph glyph-name="less" unicode="&#x3c;" horiz-adv-x="1118" 
d="M1022 1319v-270l-591 -304l591 -306v-268l-1114 574z" />
    <glyph glyph-name="equal" unicode="=" horiz-adv-x="1120" 
d="M1002 993v-244h-1005v244h1005zM1002 719v-244h-1005v244h1005z" />
    <glyph glyph-name="greater" unicode="&#x3e;" horiz-adv-x="1122" 
d="M-22 1049v270l1114 -574l-1114 -574v268l591 306z" />
    <glyph glyph-name="question" unicode="?" horiz-adv-x="1036" 
d="M329 458c0 88 24 187 80 291l289 537c17 40 25 81 25 122c0 32 -4 64 -14 99c-11 35 -26 64 -45 89c-24 32 -52 58 -90 78c-38 21 -76 30 -115 30c-66 0 -130 -31 -169 -65c-29 -25 -53 -57 -71 -98c-19 -43 -25 -120 -27 -129c0 -33 6 -66 11 -95l-226 -90l-14 58
c-9 42 -13 84 -13 125c0 84 18 166 54 246c29 65 65 122 111 167c49 51 109 93 177 118c55 21 112 30 167 30c21 0 43 -2 65 -5c52 -8 105 -28 155 -55c122 -65 208 -171 255 -318c19 -62 30 -124 30 -185c0 -84 -12 -168 -52 -242l-329 -599c-15 -34 -21 -62 -21 -86
c0 -25 6 -48 22 -70l29 -36l-110 -123c49 -11 85 -44 106 -83c14 -27 22 -57 22 -89c0 -30 -8 -61 -21 -87c-24 -48 -73 -88 -137 -88c-65 0 -114 40 -139 88c-13 26 -21 57 -21 87c0 70 38 127 82 153c6 3 12 7 18 9c-29 29 -51 64 -65 103c-12 35 -19 73 -19 113z" />
    <glyph glyph-name="at" unicode="@" horiz-adv-x="1087" 
d="M864 705c-6 27 -18 52 -40 76c-31 36 -71 54 -123 54s-96 -18 -137 -57s-60 -81 -65 -135c0 -5 -1 -11 -1 -17c0 -45 13 -80 42 -112c32 -36 71 -53 123 -53s97 18 139 58c27 24 43 50 53 78zM908 1286c0 108 -27 173 -74 213c-38 33 -97 53 -180 53
c-59 0 -110 -12 -154 -34c-55 -27 -100 -73 -138 -138c-54 -95 -92 -232 -106 -416l-3 -49h-2l-28 -350l-3 -57c-3 -43 -4 -121 -4 -122c0 -101 9 -182 24 -243c12 -49 29 -84 47 -107c35 -44 75 -74 121 -94c36 -16 76 -25 122 -26h10c103 2 190 42 267 123l40 42l133 -201
l-33 -32c-117 -114 -258 -174 -416 -178h-15c-159 4 -293 65 -396 185c-40 46 -69 107 -89 178c-26 89 -37 198 -37 325c0 18 -1 35 0 53h-4l52 659h4c20 198 68 361 146 482c59 90 136 154 227 195c73 33 155 49 245 49c126 0 232 -29 310 -94c99 -82 145 -214 145 -379
c0 -26 -1 -54 -3 -82l-80 -1011h-210l3 30c-50 -21 -109 -30 -175 -30c-111 0 -209 41 -282 124c-66 73 -100 162 -100 262c0 13 -1 25 0 37c10 114 59 213 143 292c84 80 185 120 296 120c68 0 129 -10 179 -34l15 198c2 20 3 39 3 57z" />
    <glyph glyph-name="bracketleft" unicode="[" horiz-adv-x="465" 
d="M-64 1985h456v-250h-230v-2386h230v-250h-456v2886z" />
    <glyph glyph-name="backslash" unicode="\" horiz-adv-x="946" 
d="M61 2051l901 -2135l-201 -103l-901 2135z" />
    <glyph glyph-name="bracketright" unicode="]" horiz-adv-x="465" 
d="M392 -901h-456v250h230v2386h-230v250h456v-2886z" />
    <glyph glyph-name="asciicircum" unicode="^" horiz-adv-x="809" 
d="M190 1481h-325l477 463l474 -463h-326l-148 138z" />
    <glyph glyph-name="underscore" unicode="_" horiz-adv-x="954" 
d="M-171 -18h1172v-244h-1172v244z" />
    <glyph glyph-name="grave" unicode="`" horiz-adv-x="457" 
d="M247 1102l-331 366l157 173l331 -365z" />
    <glyph glyph-name="space" unicode=" " horiz-adv-x="433" 
 />
    <glyph glyph-name="exclam" unicode="!" horiz-adv-x="318" 
d="M143 235c8 -3 14 -6 22 -11c44 -25 81 -82 81 -152s-36 -124 -79 -151c-24 -15 -50 -22 -78 -22c-64 0 -112 40 -137 87c-13 26 -20 56 -20 86c0 70 37 127 81 152c8 5 14 8 22 11h108zM-24 309v1656h226v-1656h-226z" />
    <glyph glyph-name="quotedbl" unicode="&#x22;" horiz-adv-x="545" 
d="M-38 1207v726h220v-726h-220zM228 1207v726h220v-726h-220z" />
    <glyph glyph-name="braceleft" unicode="{" horiz-adv-x="700" 
d="M-58 414v252l42 6c46 7 80 18 106 32c20 12 33 23 42 36c27 38 40 74 40 110v683c0 115 33 217 98 301c68 88 167 136 292 151h65v-248l-42 -6c-46 -7 -80 -18 -106 -32c-20 -12 -33 -23 -42 -36c-27 -38 -39 -73 -39 -109v-705c0 -102 -34 -198 -98 -280
c-8 -11 -16 -20 -25 -29c9 -9 17 -19 25 -30c64 -82 98 -174 98 -274v-706c0 -36 12 -71 39 -109c9 -13 22 -24 42 -36c26 -14 60 -25 106 -32l42 -6v-248h-65c-125 15 -224 63 -292 151c-65 84 -98 186 -98 301v684c0 32 -12 66 -40 105c-9 13 -22 24 -42 36
c-26 14 -60 24 -106 31z" />
    <glyph glyph-name="bar" unicode="|" horiz-adv-x="223" 
d="M-70 2021h220v-2892h-220v2892z" />
    <glyph glyph-name="braceright" unicode="}" horiz-adv-x="700" 
d="M627 666v-252l-42 -7c-46 -7 -80 -17 -106 -31c-20 -12 -33 -23 -42 -36c-28 -39 -40 -73 -40 -105v-684c0 -115 -33 -217 -98 -301c-68 -88 -167 -136 -292 -151h-65v248l42 6c46 7 80 18 106 32c20 12 33 23 42 36c27 38 39 73 39 109v706c0 100 34 192 98 274
c8 11 16 21 25 30c-9 9 -17 18 -25 29c-64 82 -98 178 -98 280v705c0 36 -12 71 -39 109c-9 13 -22 24 -42 36c-26 14 -60 25 -106 32l-42 6v248h65c125 -15 224 -63 292 -151c65 -84 98 -186 98 -301v-683c0 -36 13 -72 40 -110c9 -13 22 -24 42 -36c26 -14 60 -25 106 -32
z" />
    <glyph glyph-name="asciitilde" unicode="~" horiz-adv-x="1089" 
d="M211 935c60 0 158 -17 305 -51c81 -19 144 -31 188 -39c34 -6 58 -10 65 -10c13 3 22 9 31 23c6 9 10 18 10 26v73l215 -88l-9 -45c-16 -79 -64 -147 -120 -184c-26 -17 -55 -29 -85 -35c-17 -4 -34 -6 -54 -6c-60 0 -158 17 -305 51c-81 19 -144 31 -188 39
c-34 6 -58 10 -65 10c-13 -3 -22 -9 -31 -23c-6 -9 -7 -18 -7 -26v-73l-218 88l9 45c16 79 64 147 120 184c26 17 55 29 85 35c17 4 34 6 54 6z" />
    <glyph glyph-name="a" unicode="a" horiz-adv-x="1016" 
d="M274 429l-158 -417h-175l532 1495l533 -1495h-174l-159 417h-399zM473 995l-136 -388h273z" />
    <glyph glyph-name="b" unicode="b" horiz-adv-x="1106" 
d="M474 821h-298v-628h355c83 0 153 34 214 91c67 62 98 135 98 222s-31 160 -98 222c-66 61 -141 93 -233 93h-38zM176 1234v-234h260c34 5 60 16 79 32c28 23 41 52 41 92c0 42 -15 70 -44 88c-22 14 -57 22 -106 22h-230zM572 18v-4h-558v1399h465v-4
c69 -11 128 -38 174 -83c52 -54 78 -122 78 -201c0 -63 -17 -121 -51 -170c70 -23 136 -62 188 -115c89 -94 135 -209 135 -341s-46 -248 -135 -343c-80 -79 -182 -138 -296 -138z" />
    <glyph glyph-name="c" unicode="c" horiz-adv-x="1498" 
d="M152 282c-95 128 -144 272 -144 428c0 32 1 61 5 94c23 192 110 351 264 471c130 100 276 150 436 150c32 0 65 -2 98 -6c93 -13 180 -41 261 -86l44 -25l-135 -137l-23 12c-54 26 -111 43 -171 50c-25 3 -49 5 -73 5c-120 0 -228 -36 -327 -111
c-120 -90 -187 -206 -205 -351c-3 -24 -5 -71 -5 -72c0 -117 38 -220 116 -317c92 -116 211 -182 360 -201c25 -3 72 -4 74 -4c120 0 229 36 328 111c98 75 162 169 192 285l7 27h172l-8 -43c-35 -165 -119 -301 -253 -406c-129 -99 -276 -149 -436 -149c-32 0 -65 3 -98 7
c-197 24 -358 115 -479 268z" />
    <glyph glyph-name="d" unicode="d" horiz-adv-x="986" 
d="M155 1270v-1113c145 0 266 62 367 162c110 109 163 239 163 395s-51 287 -158 399c-56 59 -122 100 -194 126c-54 19 -113 31 -178 31zM-7 14v1402h151c216 0 394 -78 521 -203c124 -138 183 -307 183 -499c0 -193 -60 -362 -186 -495c-128 -120 -297 -205 -497 -205
h-172z" />
    <glyph glyph-name="e" unicode="e" horiz-adv-x="867" 
d="M-8 1413h835v-179h-673v-628h216v-180h-216v-233h673v-179h-835v1399z" />
    <glyph glyph-name="f" unicode="f" horiz-adv-x="648" 
d="M184 1234v-625h254v-180h-254v-415h-162v1399h591v-179h-429z" />
    <glyph glyph-name="g" unicode="g" horiz-adv-x="1461" 
d="M166 282c-95 128 -143 272 -143 428c0 32 1 61 5 94c23 192 109 351 263 471c130 100 276 150 436 150c32 0 65 -2 98 -6c93 -13 180 -41 262 -86l44 -25l-135 -137l-23 12c-54 26 -112 43 -172 50c-25 3 -49 5 -73 5c-120 0 -227 -37 -327 -113
c-119 -91 -185 -209 -204 -356c-3 -24 -5 -71 -5 -72c0 -119 37 -226 115 -325c92 -123 211 -192 360 -212c26 -3 73 -5 75 -5c121 0 228 39 327 119c55 44 99 94 132 151h-328v180h568l-9 -45c-35 -164 -118 -299 -252 -404c-129 -99 -277 -149 -437 -149
c-32 0 -64 3 -97 7c-197 24 -359 115 -480 268z" />
    <glyph glyph-name="h" unicode="h" horiz-adv-x="979" 
d="M845 1413v-1399h-162v414h-511v-414h-162v1399h162v-805h511v805h162z" />
    <glyph glyph-name="i" unicode="i" horiz-adv-x="230" 
d="M155 14h-162v1399h162v-1399z" />
    <glyph glyph-name="j" unicode="j" horiz-adv-x="448" 
d="M51 -29c50 22 72 63 72 124v1324h163v-1329c0 -48 -7 -94 -21 -134c-18 -51 -49 -95 -90 -127c-51 -40 -134 -60 -224 -60c-38 0 -70 3 -97 9c-35 8 -68 25 -97 46l-29 20l85 157l30 -25c13 -11 27 -18 42 -22c18 -4 38 -7 58 -7c37 0 73 7 108 24z" />
    <glyph glyph-name="k" unicode="k" horiz-adv-x="1218" 
d="M939 644c143 -145 213 -324 213 -528v-102h-163v108c0 167 -57 308 -175 428c-73 74 -155 124 -246 152l-393 -688h-146v1399h162v-1086l638 1086h186l-345 -597c106 -36 198 -93 269 -172z" />
    <glyph glyph-name="l" unicode="l" horiz-adv-x="647" 
d="M198 193h429v-179h-591v1399h162v-1220z" />
    <glyph glyph-name="m" unicode="m" horiz-adv-x="1345" 
d="M1114 1413h94v-1399h-166v988l-416 -734l-436 739v-993h-166v1399h95l507 -868z" />
    <glyph glyph-name="n" unicode="n" horiz-adv-x="949" 
d="M677 426v987h172v-1399h-95l-578 971v-971h-162v1387h91z" />
    <glyph glyph-name="o" unicode="o" horiz-adv-x="1553" 
d="M1166 1111c-113 111 -248 165 -409 165c-159 0 -294 -54 -407 -165c-114 -111 -170 -241 -170 -395c0 -156 56 -286 170 -396c113 -110 247 -164 407 -164c161 0 296 54 409 164s168 240 168 396c0 154 -55 284 -168 395zM1291 1245c142 -146 212 -324 212 -529
c0 -206 -65 -384 -212 -530c-144 -143 -312 -219 -535 -219s-387 73 -534 219c-144 143 -213 324 -213 530c0 205 71 383 213 529c147 146 327 219 534 219c208 0 389 -73 535 -219z" />
    <glyph glyph-name="p" unicode="p" horiz-adv-x="1078" 
d="M173 1234v-625h297v2h38c91 0 167 31 233 91c67 62 98 134 98 221c0 86 -31 159 -98 221c-61 57 -131 90 -214 90h-354zM864 1269c89 -96 135 -212 135 -347s-46 -252 -135 -347c-80 -80 -182 -139 -296 -139v-7h-395v-415h-162v1399h557v-4c114 0 216 -60 296 -140z" />
    <glyph glyph-name="q" unicode="q" horiz-adv-x="1655" 
d="M240 1247c147 145 327 219 534 219c208 0 388 -73 535 -218c141 -145 212 -323 212 -528s-71 -383 -212 -528c-52 -51 -108 -93 -169 -127c6 -1 11 -1 17 -1c18 0 38 4 60 9c52 13 90 40 118 84c5 7 8 15 12 23l19 43l138 -116c-9 -15 -16 -29 -25 -44
c-49 -84 -123 -140 -220 -163c-31 -7 -62 -11 -92 -11c-54 0 -107 12 -156 35c-10 5 -20 11 -30 16c-23 14 -44 27 -61 42c-47 -9 -96 -13 -146 -13c-103 0 -199 18 -287 56c-45 18 -87 42 -128 68c-42 28 -81 60 -119 97c-142 145 -213 324 -213 529s71 383 213 528z
M675 186c-21 0 -48 -5 -67 -11c52 -16 107 -24 166 -24h10c-4 3 -8 6 -13 9c-31 18 -64 26 -96 26zM1188 252c114 119 170 259 170 427c0 167 -55 308 -170 428c-114 120 -251 177 -414 177c-162 0 -297 -57 -412 -177s-171 -260 -171 -427c0 -168 56 -309 171 -428
c20 -21 41 -39 62 -56c44 39 97 64 158 79c32 8 64 12 94 12c54 0 106 -13 155 -36l30 -15c25 -14 79 -54 127 -122c73 29 139 75 200 138z" />
    <glyph glyph-name="r" unicode="r" horiz-adv-x="1034" 
d="M158 1234v-625h299v2h38c92 0 168 31 234 91c67 62 95 134 95 221c0 86 -28 159 -95 221c-61 57 -130 90 -214 90h-357zM712 492l270 -478h-187l-264 415h-373v-415h-162v1399h559v-4c115 0 216 -59 294 -138c89 -94 135 -210 135 -342s-46 -246 -135 -340
c-39 -41 -85 -74 -137 -97z" />
    <glyph glyph-name="s" unicode="s" horiz-adv-x="810" 
d="M646 1211c-32 34 -69 47 -111 47h-7c-49 0 -89 -17 -122 -49c-34 -32 -42 -96 -49 -111c0 -5 1 -17 4 -33c4 -20 8 -48 17 -82c48 -179 98 -356 146 -535c16 -61 23 -100 23 -126c0 -89 -37 -169 -106 -234c-72 -68 -163 -105 -270 -105c-91 0 -164 33 -224 98l-25 27
l118 135l26 -27c31 -33 68 -47 110 -47h7c49 0 88 17 121 49s50 68 50 111c0 13 -4 52 -20 109c-60 214 -108 376 -136 488c-12 50 -20 91 -26 121c-5 24 -8 42 -8 57c0 89 37 169 106 234c72 68 163 105 270 105c92 0 165 -33 225 -97l25 -28l-119 -133z" />
    <glyph glyph-name="t" unicode="t" horiz-adv-x="608" 
d="M166 14v1220h-215v179h592v-179h-215v-1220h-162z" />
    <glyph glyph-name="u" unicode="u" horiz-adv-x="1054" 
d="M500 -18h-65c-112 0 -220 44 -314 127c-1 1 -2 3 -3 4c-74 87 -123 193 -123 314v987h161v-961c0 -85 32 -155 87 -215c68 -55 171 -70 194 -79h61c61 0 125 24 193 79c50 56 84 120 84 198v978h162v-1023h-4c-11 -106 -50 -199 -117 -278c-1 -1 -2 -3 -3 -4
c-84 -95 -295 -127 -313 -127z" />
    <glyph glyph-name="v" unicode="v" horiz-adv-x="1026" 
d="M466 -82l-532 1497h175l357 -1023l359 1023h174z" />
    <glyph glyph-name="w" unicode="w" horiz-adv-x="1817" 
d="M680 -58l-725 1473h178l547 -1126l123 270l-372 856h179l507 -1126l506 1126h177l-683 -1473l-218 483z" />
    <glyph glyph-name="x" unicode="x" horiz-adv-x="1213" 
d="M574 333l-199 -319h-186l272 471l-528 928h186l455 -801l455 801h186l-528 -928l273 -471h-186z" />
    <glyph glyph-name="y" unicode="y" horiz-adv-x="1213" 
d="M662 14h-175v460l-554 939h187l455 -801l454 801h187l-554 -939v-460z" />
    <glyph glyph-name="z" unicode="z" horiz-adv-x="1002" 
d="M234 194h668v-180h-924v49l662 1171h-662v179h947z" />
    <glyph glyph-name="f_f" unicode="&#xfb00;" horiz-adv-x="1211" 
d="M467 1234h-429v179h591v-1399h-162v415h-254v180h254v625zM817 1234v-625h254v-180h-254v-415h-162v1399h591v-179h-429z" />
  </font>
</defs>
</svg>
