<svg xmlns:xlink="http://www.w3.org/1999/xlink" id="svg6760" viewBox="0 0 1093 416" xmlns="http://www.w3.org/2000/svg"><defs id="defs4"><path id="j" d="M0 0v-3.3h-16.8v-18h5.2v-3.2h-5.2v-8.1H0V-36h-20V0Z" fill="#fff" fill-opacity="1" fill-rule="nonzero" stroke="none"/><path id="k" d="M0 0c2.7.1 4.9 1 6.6 2.7A8.7 8.7 0 0 1 9.2 9a9 9 0 0 1-2.6 6.3A8.6 8.6 0 0 1 .8 18h-9.4V0Zm1.5-3.1a2.8 2.8 0 0 0-.3 0v-.2h-9.8v-11.3H-12v35.9H1.2c2.9-.2 5.4-1.4 7.6-3.6 2.4-2.4 3.6-5.3 3.6-8.6 0-3.4-1.2-6.3-3.6-8.7a11.5 11.5 0 0 0-4-2.7L12-14.6H8.1Z" fill="#fff" fill-opacity="1" fill-rule="nonzero" stroke="none"/></defs><style id="style2"><![CDATA[.Tile>svg:path{clip-path:url(banner-blue-pool-tiles.svg#TileClip)}.Tile{fill:#53a9de;stroke:#1c6cb5;stroke-width:1}]]></style><defs id="defs25"><path class="Tile" id="Tile" clip-path="url(banner-blue-pool-tiles.svg#TileClip)" d="M1 1h34v34H1z"/><path id="a" d="M0 0h820v312H0Z"/><path id="d" d="M0 0c-.4-2.5.9-5.3-.8-7.7C-.5-5-1.7-2.4 0 0" fill="#0b0c0c" fill-opacity="1" fill-rule="nonzero" stroke="none"/><path id="e" d="M0 0v-4.3C-1.3-2.8-1.3-1.4 0 0" fill="#070809" fill-opacity="1" fill-rule="nonzero" stroke="none"/><path id="g" d="M0 0v-41.8a19 19 0 0 1 14.2 6.1c3.9 4.1 5.9 9 5.9 14.8 0 5.8-2 10.8-5.8 15A18.3 18.3 0 0 1 .3 0Zm-4.7-46.4V4.9H.5c7.4-.5 13.2-3 17.5-7.5 4.6-5 6.9-11.2 6.9-18.3 0-7-2.3-13.1-7-18.1a26 26 0 0 0-16.6-7.4z" fill="#fff" fill-opacity="1" fill-rule="nonzero" stroke="none"/><path id="h" d="M0 0v3.3h5.2v18h-10v3.2H8.5v-35.8H5.2V0Z" fill="#fff" fill-opacity="1" fill-rule="nonzero" stroke="none"/><path id="i" d="M0 0v-11.3h-3.3v35.8H10v-3.2H0v-18h5.2V0Z" fill="#fff" fill-opacity="1" fill-rule="nonzero" stroke="none"/><path id="m" d="m0 0-15.1 26.2V0h-3.3v35.7h1.6L-1.6 9.3V36h3.2V0Z" fill="#fff" fill-opacity="1" fill-rule="nonzero" stroke="none"/><path id="n" d="M0 0v-32.6h-3.3V0h-5v3.3H5V0Z" fill="#fff" fill-opacity="1" fill-rule="nonzero" stroke="none"/><path id="o" d="M0 0a7 7 0 0 1-5 2.3h-.2C-7 2.3-8.7 1.5-10 .2a7 7 0 0 1-2-4.9c0-.7.3-2.2.8-4.5l5-20.4c.6-2.3.8-3.9.8-4.6 0-3.2-1.1-6-3.4-8.3a12 12 0 0 0-8.2-3.8h-.5c-3 0-5.7 1.2-8.2 3.6l3.5 3.6a7 7 0 0 1 5-2.3h.2c1.9.1 3.5.8 4.8 2.2 1.3 1.3 2 3 2 4.8 0 .7-.3 2.1-.8 4.3a202.3 202.3 0 0 0-5.8 25.3c0 3.2 1.1 6 3.4 8.3 2.3 2.3 5 3.6 8.2 3.7h.5c3 0 5.7-1.2 8.2-3.6z" fill="#fff" fill-opacity="1" fill-rule="nonzero" stroke="none"/><path id="q" d="M0 0a5 5 0 0 1-3.4 1.6h-.2C-5 1.6-6.1 1.1-7 .1c-.9-1-1.3-2-1.3-3.4 0-.5.1-1.5.5-3.2l3.5-14.2c.4-1.6.5-2.7.5-3.3 0-2.2-.8-4.1-2.4-5.8a8.1 8.1 0 0 0-5.7-2.6h-.3c-2.1 0-4 .9-5.8 2.5l2.5 2.6a5 5 0 0 1 3.4-1.7h.2c1.3 0 2.4.6 3.3 1.5 1 1 1.4 2.1 1.4 3.4l-.5 3c-2.7 10.4-4 16.2-4 17.7a8 8 0 0 0 2.3 5.8A8.1 8.1 0 0 0-3.7 5h.4c2 0 4-.8 5.8-2.5z" fill="#fff" fill-opacity="1" fill-rule="nonzero" stroke="none"/><path id="r" d="M0 0a26.5 26.5 0 0 0-9.6-15.6c-4.7-3.7-10-5.5-15.7-5.5a28.9 28.9 0 0 0-3.5.2c-7.1 1-12.9 4.2-17.3 9.9a25 25 0 0 0-5.3 19 25 25 0 0 0 9.8 17.3 25 25 0 0 0 19.2 5.3c3.4-.5 6.7-1.6 10-3.4l-3.7-3.6a22.5 22.5 0 0 1-9.7 2.2c-4.7 0-9-1.4-12.7-4.4a20.3 20.3 0 0 1-8-14 24.9 24.9 0 0 1-.2-2.8A20 20 0 0 1-42.2-8c3.6-4.6 8.2-7.2 14-8a21.2 21.2 0 0 1 2.9-.2A21.1 21.1 0 0 1-5.1 0z" fill="#fff" fill-opacity="1" fill-rule="nonzero" stroke="none"/><path id="s" d="m0 0-4.3 12.3L-8.6 0Zm-9.7-3.3-4-11.3h-3.6l13 37 13-37H5L1-3.3Z" fill="#fff" fill-opacity="1" fill-rule="nonzero" stroke="none"/><path id="t" d="M0 0h10v-3.3H-3.3v36H0Z" fill="#fff" fill-opacity="1" fill-rule="nonzero" stroke="none"/><path id="u" d="M0 0a19 19 0 0 0-6.7-11 17.4 17.4 0 0 0-13.4-3.6c-5 .6-9.1 3-12.2 6.9A17.5 17.5 0 0 0-36 5.7c.6 5 3 9 6.9 12a17.4 17.4 0 0 0 13.4 3.8c2.4-.3 4.7-1.1 7-2.4l-2.5-2.5a16 16 0 0 1-6.9 1.6c-3.2 0-6.2-1-8.9-3.2a14 14 0 0 1-5.5-9.7 16 16 0 0 1-.2-2c0-3.3 1-6.2 3.2-8.9a14.2 14.2 0 0 1 11.8-5.7c3.2 0 6.2 1 8.9 3.1 1.9 1.5 3.3 3.2 4 5h-9V0Z" fill="#fff" fill-opacity="1" fill-rule="nonzero" stroke="none"/><path id="v" d="m0 0-4.3 12.3L-8.6 0Zm-9.8-3.3-4-11.3h-3.5l13 37 13-37H5L1-3.3Z" fill="#fff" fill-opacity="1" fill-rule="nonzero" stroke="none"/><path id="w" d="M0 0a9 9 0 0 1 6.5 2.7A8.7 8.7 0 0 1 9.2 9c0 2.4-.9 4.5-2.7 6.3A8.5 8.5 0 0 1 .8 18h-9.4V0Zm1.5-3.1a2.8 2.8 0 0 0-.3 0v-.2h-9.8v-11.3H-12v35.9H1.2c2.9-.2 5.4-1.4 7.6-3.6 2.4-2.4 3.6-5.3 3.6-8.6 0-3.4-1.2-6.3-3.6-8.7a11.3 11.3 0 0 0-4-2.7L12-14.6H8.1Z" fill="#fff" fill-opacity="1" fill-rule="nonzero" stroke="none"/><path id="x" d="m0 0-14.2 24.2h3.8l12-20.8 12 20.8h3.8L3.3 0v-11.7H0Z" fill="#fff" fill-opacity="1" fill-rule="nonzero" stroke="none"/><path id="A" d="m0 0-33.2-10.3L-59.6 75l33.1 10.2Z" fill-opacity="1" fill-rule="nonzero" stroke="none"/><use id="l" fill-opacity="1" fill-rule="nonzero" xlink:href="banner-blue-pool-tiles.svg#j"/><use id="p" fill-opacity="1" fill-rule="nonzero" xlink:href="banner-blue-pool-tiles.svg#k"/><clipPath id="TileClip"><use id="use8" xlink:href="banner-blue-pool-tiles.svg#Tile"/></clipPath><pattern id="TilePattern" patternUnits="userSpaceOnUse" width="35" height="35" clip-path="url(banner-blue-pool-tiles.svg#TileClip)"><use id="use5" xlink:href="banner-blue-pool-tiles.svg#Tile"/></pattern><filter id="LiquidFilter" x="0" y="0" width="1" height="1" color-interpolation-filters="sRGB"><feFlood id="feFlood16494" flood-color="#9EECFE" result="result9" flood-opacity="1"/><feGaussianBlur id="feGaussianBlur16496" stdDeviation="1" result="result8" in="SourceGraphic"/><feTurbulence id="feTurbulence16498" seed="244" result="result7b" type="turbulence" numOctaves="1" baseFrequency="0.029999999999999999 0.029999999999999999"/><feColorMatrix id="feColorMatrix16622" result="result5" values="1.0000000 0.0000000 0.0000000 0.0000000 0.0000000 0.0000000 1.0000000 0.0000000 0.0000000 0.0000000 0.0000000 0.0000000 1.0000000 0.0000000 0.0000000 0.0000000 0.0000000 0.0000000 2.0000000 0.0000000" type="matrix"/><feMerge id="feMerge16630" result="result12"><feMergeNode id="feMergeNode16626" in="result5"/></feMerge><feTurbulence id="feTurbulence16606" seed="279" result="result7b" type="turbulence" numOctaves="1" baseFrequency="0.029999999999999999 0.029999999999999999"/><feColorMatrix id="feColorMatrix16500" result="result5" values="1.0000000 0.0000000 0.0000000 0.0000000 0.0000000 0.0000000 1.0000000 0.0000000 0.0000000 0.0000000 0.0000000 0.0000000 1.0000000 0.0000000 0.0000000 0.0000000 0.0000000 0.0000000 2.0000000 0.0000000" type="matrix"/><feMerge id="feMerge16610" result="result12"><feMergeNode id="feMergeNode16612" in="result12"/><feMergeNode id="feMergeNode16624" in="result5"/></feMerge><feColorMatrix id="feColorMatrix16632" result="result5" values="1.0000000 0.0000000 0.0000000 0.0000000 0.0000000 0.0000000 1.0000000 0.0000000 0.0000000 0.0000000 0.0000000 0.0000000 1.0000000 0.0000000 0.0000000 0.0000000 0.0000000 0.0000000 1.5000000 0.0000000" type="matrix"/><feComposite id="feComposite16502" in2="result8" result="result6" operator="in" in="result8"/><feDisplacementMap id="feDisplacementMap16504" in2="result6" in="result5" xChannelSelector="A" yChannelSelector="A" scale="100" result="result4"/><feComposite id="feComposite16506" in2="result4" result="result2" operator="in" in="result8"/><feComposite id="feComposite16508" in2="result2" result="fbSourceGraphic" in="SourceGraphic" operator="in"/><feMerge id="feMerge16516" result="result10"><feMergeNode id="feMergeNode16510" in="result9"/><feMergeNode id="feMergeNode16604" in="fbSourceGraphic"/></feMerge><feColorMatrix id="feColorMatrix17368" values="1.0000000 0.0000000 0.0000000 0.0000000 0.0000000 0.0000000 1.0000000 0.0000000 0.0000000 0.0000000 0.0000000 0.0000000 1.0000000 0.0000000 0.0000000 0.0000000 0.0000000 0.0000000 0.50000000 0.0000000"/><feComposite id="feComposite16518" operator="over" result="result11" in2="SourceGraphic"/></filter></defs><defs id="defs42"><clipPath id="b" clipPathUnits="userSpaceOnUse"><use id="use27" xlink:href="banner-blue-pool-tiles.svg#a"/></clipPath><clipPath id="c" clipPathUnits="userSpaceOnUse"><path id="path30" d="M-39.7 601.6H856v-895.9H-39.7Z"/></clipPath><clipPath id="f" clipPathUnits="userSpaceOnUse"><path id="path33" d="M0 312h820V0H0Z"/></clipPath><clipPath id="y" clipPathUnits="userSpaceOnUse"><path id="path36" d="M487.5 281h250V31h-250z"/></clipPath><clipPath id="z" clipPathUnits="userSpaceOnUse"><path id="path39" d="M635 86.8C566.4 74.4 518.8 114 518.8 114s45.8-62 127.8-40.2c73.6 19.6 68.7 85.5 68.7 85.5s-16.9-61.2-80.1-72.6"/></clipPath></defs><g class="Tile" id="g6640" transform="matrix(1.33333 0 0 -1.33333 0 416)" filter="url(banner-blue-pool-tiles.svg#LiquidFilter)" clip-path="url(banner-blue-pool-tiles.svg#b)"><path id="path46" d="M176.8 51.3 147.4 53c.5-10.4 1-20.8 1.2-31.2l29.6-.5a1895.5 1895.5 0 0 1-1.4 30" fill="#337bbf"/><path id="path50" d="m178.2 21.3-29.6.5.7-30.8 29.9-.7a2082.7 2082.7 0 0 1-1 31"/><path id="path54" d="M175 79c-9.7.5-19.5.9-29.2 1.2.6-9 1.2-18.1 1.6-27.2a2769.5 2769.5 0 0 0 29.4-1.7 1737.5 1737.5 0 0 1-1.7 27.7"/><path id="path58" d="m173 104-22.8 1.1h-6.3a1316.2 1316.2 0 0 0 2-24.9L175 79a1614.5 1614.5 0 0 1-2 25" fill="#337bbf"/><path id="path62" d="m171 159.4-32.2.5.4-9.1 2.2-19.6c10.2-.3 20.3-.5 30.3-.5l-.7 28.8" fill="#337bbf"/><path id="path66" d="M664.2 79.2C664 69 663.6 59.5 663 50c9.2.8 18.3 1.4 27.5 2l2.1 27.6-25.7-.4h-2.7"/><path id="path70" d="M664.7 109.6h30.6l.5 4.8.6 24a1676 1676 0 0 0-31.3-.4l-.4-28.4" fill="#0099d6"/><path id="path74" d="m658.3-8.5 28.9 2.1 1.4 29.2-28.2-2.4c-.8-9.6-1.5-19.3-2-28.9"/><path id="path78" d="M662.8 47.2c-.9-9-1.7-17.8-2.4-26.8l28.2 2.4 1.9 29.2c-9.2-.6-18.3-1.2-27.5-2l-.2-2.8" fill="#0099d6"/><path id="path82" d="M665 138c10.6 0 21 .1 31.4.3l.3 8.5.4 21.3-31.6-.5-.4-29.6" fill="#66acdf"/><path id="path86" d="m664.7 109.6-.5-27.8v-2.6h2.7c8.6 0 17.1.2 25.7.4a2020.3 2020.3 0 0 0 2.7 30h-30.6" fill="#0099d6"/><path id="path90" d="m667.4 287.6-.8-12.4-.3-18.5 5.7.2h26.5l.2 19 .2 12.6-26.3-.7-5.2-.2"/><path id="path94" d="m667.4 287.6 5.2.2 26.3.7c.4 10.8 1 21.1 1.7 31.6-10.4-1-20.8-1.6-31.3-2.2l-2-30.3" fill="#66acdf"/><path id="path98" d="m666.3 256.7-.2-29v-2.4l32 .6.4 31H672l-5.7-.2" fill="#337bbf"/><path id="path102" d="M665.8 197.2h31.9l.4 28.7a3438 3438 0 0 0-32-.6l-.3-28.1" fill="#66acdf"/><path id="path106" d="m665.8 197.2-.3-29.6a7252.3 7252.3 0 0 1 31.6.5l.6 29h-32" fill="#0099d6"/><path id="path110" d="m173 104-.7 9.4-.6 17.3c-10 0-20.1.2-30.3.5a1210 1210 0 0 0 2.5-26.1h6.3c7.6-.4 15.2-.8 22.9-1" fill="#337bbf"/><path id="path114" d="m633 303.6-.7-17c11.8 0 23.5.4 35 1l2 30.3a1130.4 1130.4 0 0 0-35.8-1.2l-.6-13.1" fill="#337bbf"/><path id="path118" d="M633.6 79v-3.3c0-9.2 0-18.2-.2-27.1 9.7 0 18.6.7 27.7 1.2l1.9.2c.6 9.5 1.1 19 1.2 29.2l-29.9-.2z" fill="#337bbf"/><path id="path122" d="M630.2-10c9.3.3 18.7.9 28.1 1.5l2 29c-9.4-.7-19-1.3-28.5-1.6a2743.6 2743.6 0 0 1-1.6-29" fill="#66acdf"/><path id="path126" d="m633.4 48.6-.1-5.5a3804.7 3804.7 0 0 1-1.5-24.2c9.6.3 19 .9 28.6 1.5.7 9 1.5 17.9 2.4 26.8l.2 2.8-2-.2c-9-.5-17.9-1.1-27.6-1.2" fill="#0099d6"/><path id="path130" d="M631.8 261.3V256c11.5 0 23 .1 34.5.7l.3 18.5.8 12.4a938.7 938.7 0 0 0-35.1-1c-.3-8-.5-16.2-.5-25.3" fill="#337bbf"/><path id="path134" d="m632.2 197.4 33.6-.2.2 28a2695.7 2695.7 0 0 0-34-.2l.2-27.6" fill="#66acdf"/><path id="path138" d="m631.8 256 .3-31 34 .3v2.3l.2 29a794 794 0 0 0-34.5-.6" fill="#337bbf"/><path id="path142" d="m632.8 138.3 32.3-.3.4 29.6a4180.5 4180.5 0 0 0-33-.4l.3-29" fill="#0099d6"/><path id="path146" d="m632.4 167.2 33 .4.4 29.6c-11.2 0-22.4 0-33.6.2l.2-30.2" fill="#0099d6"/><path id="path150" d="m632.8 138.3.4-28.5 19-.1h12.5l.4 28.3a2167.8 2167.8 0 0 0-32.3.3"/><path id="path154" d="m633.2 109.8.4-30.8h.7c10.3 0 20.2 0 29.9.2v2.6l.5 27.8-12.6.1-19 .1"/><path id="path158" d="M169 319.2h-34.7c0-11 .2-21.9.4-32.9l34.4-.7a7238.1 7238.1 0 0 0-.2 33.6" fill="#337bbf"/><path id="path162" d="m169.1 285.6-34.4.7.7-34.2a3163 3163 0 0 1 34-.3 7599.2 7599.2 0 0 0-.3 33.8" fill="#0099d6"/><path id="path166" d="M169.4 251.8a3189 3189 0 0 0-34 .3l1-32 33.5-1-.5 32.7" fill="#0099d6"/><path id="path170" d="m169.9 219.1-33.6 1 1-24.4c0-2 0-3.9.2-5.8l33-.4-.6 29.6" fill="#66acdf"/><path id="path174" d="m171 162-.6 27.5c-11 0-22 .2-33 .4l1.4-30 32.2-.5v2.6" fill="#337bbf"/><path id="path178" d="m696.4 138.3-.6-24-.5-4.8h30.4l1 13 .6 16.5-13.5-.3-17.4-.4" fill="#337bbf"/><path id="path182" d="M698.5 256.8a7128.5 7128.5 0 0 0-.4-31l31.4 1 .3 16.8.2 13.3-14.2-.1h-17.3" fill="#0099d6"/><path id="path186" d="M699 288.5a485.6 485.6 0 0 1-.3-12.6l-.2-19 17.3-.1H730l.3 27 .3 5h-14.7a482 482 0 0 1-17-.3"/><path id="path190" d="m696.7 146.8-.3-8.5 17.4.4 13.5.3.7 24 .1 5.7-31-.6-.4-21.3"/><path id="path194" d="M700.6 320c-.6-10.4-1.3-20.7-1.7-31.5 5.7.2 11.3.3 17 .3h14.7l1.7 33.5-15.2-.7-16.5-1.5" fill="#337bbf"/><path id="path198" d="m697.1 168.1 31 .6.8 28.7a3454.2 3454.2 0 0 0-31.2-.2 7470 7470 0 0 0-.6-29" fill="#337bbf"/><path id="path202" d="M697.7 197.2c10.4 0 20.8 0 31.2.2l.6 29.3a4508.5 4508.5 0 0 0-31.4-.8l-.4-28.7" fill="#337bbf"/><path id="path206" d="m114.3 81.2-29.6.6 1.5-26.4c10.1-.2 20.3-.6 30.4-1a980 980 0 0 1-2.3 26.8"/><path id="path210" d="M111.5 106.2c-9.6.7-19.2 1.6-28.8 2.5v-.1c.8-9 1.5-17.9 2-26.8l29.6-.6c-.8 8.3-1.8 16.7-2.8 25"/><path id="path214" d="m118.5 22.5-31.2.7.5-31a5598.1 5598.1 0 0 0 31.7-.6c-.2 10.3-.5 20.6-1 30.9" fill="#337bbf"/><path id="path218" d="M116.6 54.4c-10.1.4-20.3.8-30.4 1 .5-10.7.8-21.4 1-32.2l31.3-.7c-.4 10.6-1.1 21.3-1.9 32"/><path id="path222" d="m107.4 149.9-.7 10.7-10.9.4-18.4.7.5-7a839.1 839.1 0 0 1 1.9-20.4l29-1.7c-.6 5.6-1 11.4-1.4 17.3" fill="#337bbf"/><path id="path226" d="m111.3 107.3-2.6 25.3a2952.7 2952.7 0 0 0-29 1.7l3-25.6a932 932 0 0 1 28.8-2.5l-.2 1.1" fill="#0099d6"/><path id="path230" d="m106.7 160.6-1.6 30.1-29.6 1.1a2287.7 2287.7 0 0 1 1.9-30l18.4-.8 11-.4"/><path id="path234" d="m101.4 287.2-29.5.8.8-34.4 29.7-.9a3122.5 3122.5 0 0 0-1 34.5" fill="#337bbf"/><path id="path238" d="M103.6 221.4a3669.7 3669.7 0 0 0-29.7 1.4l1.6-31c9.8-.4 19.7-.8 29.6-1a3601.2 3601.2 0 0 0-1.5 30.6" fill="#66acdf"/><path id="path246" d="m100.8 319.4-29.3.3c0-10.5.2-21.1.4-31.7l29.5-.8a2935 2935 0 0 0-.6 32.2" fill="#0099d6"/><path id="path250" d="m144 105-2.6 26.2c-10.9.3-21.7.8-32.7 1.4l2.6-25.3.2-1a430 430 0 0 1 32.4-1.2"/><path id="path254" d="m145.8 80.2-31.5 1c1-9 1.7-17.8 2.3-26.8 10.3-.4 20.6-.8 30.8-1.4-.4 9.1-1 18.2-1.6 27.2" fill="#66acdf"/><path id="path258" d="M144 105a430 430 0 0 0-32.5 1.2c1-8.3 2-16.7 2.8-25l31.5-1a1308 1308 0 0 1-1.9 24.9"/><path id="path262" d="m139.2 150.8-.4 9-32 .8.6-10.7c.3-6 .8-11.7 1.3-17.3a1475.2 1475.2 0 0 1 32.7-1.4l-2.2 19.6" fill="#337bbf"/><path id="path266" d="m137.5 189.9-32.4.8a3913.6 3913.6 0 0 1 1.6-30c10.7-.4 21.4-.7 32-.8a4490.1 4490.1 0 0 0-1.2 30" fill="#337bbf"/><path id="path242" d="m102.4 252.7-29.7 1 1.2-31 29.7-1.3a3342.2 3342.2 0 0 0-1.2 31.3" fill="#66acdf"/><path id="path270" d="m137.2 195.7-.9 24.4-32.7 1.3 1.5-30.7 32.4-.8-.3 5.8"/><path id="path274" d="m135.4 252-33 .7c.3-10.4.7-20.9 1.2-31.3 10.9-.5 21.8-1 32.7-1.3l-.9 32" fill="#66acdf"/><path id="path278" d="M147.4 53a2269.6 2269.6 0 0 1-30.8 1.4c.8-10.6 1.5-21.3 2-32l30-.6-1.2 31.2"/><path id="path282" d="M148.7 21.8a5445.8 5445.8 0 0 0-30.2.7c.5-10.3.8-20.6 1-30.9l29.8-.6-.6 30.8"/><path id="path286" d="m134.7 286.3-33.3 1a3122.5 3122.5 0 0 1 1-34.6l33-.6a3929.3 3929.3 0 0 0-.7 34.2" fill="#0099d6"/><path id="path290" d="m692.6 79.6 30.9 1.1 2.2 28.9h-30.4a2034 2034 0 0 1-2.7-30"/><path id="path294" d="m134.3 319.3-33.5.1c.1-10.7.3-21.5.6-32.2l33.3-.9a3689.7 3689.7 0 0 0-.4 33"/><path id="path298" d="M690.5 52c10.4.7 20.8 1.2 31.2 1.6l1.8 27.1c-10.3-.4-20.6-.8-30.9-1a2021 2021 0 0 1-2.1-27.7"/><path id="path302" d="m688.6 22.8 31.5 2.9a2794.4 2794.4 0 0 0 1.6 28c-10.4-.5-20.8-1-31.2-1.7a2018.2 2018.2 0 0 1-1.9-29.2"/><path id="path306" d="m687.2-6.4 31.5 2.5 1.4 29.6-31.5-3a2017.3 2017.3 0 0 1-1.4-29"/><path id="path310" d="m337.8 220.8 30.3 1.6a3069 3069 0 0 1 1 33.6l-5.3-.3-24.6-.8v-2.2a2374.1 2374.1 0 0 0-1.4-31.9" fill="#0099d6"/><path id="path314" d="M262.7 54.9a2172.8 2172.8 0 0 1-1.5-31.9l10.6.6 14.6 1a856 856 0 0 0 2 31.7l-25.7-1.4" fill="#337bbf"/><path id="path318" d="M291 82.7a5225.7 5225.7 0 0 0-26.9-2l-.7-12.3-.7-13.5 25.6 1.4a728 728 0 0 0 2.7 26.4" fill="#337bbf"/><path id="path322" d="m305.2 194.5 1 25a2233 2233 0 0 0-34-.8c0-2.7 0-5.4-.2-8.1l-.5-20.1 33.6 1 .1 3" fill="#337bbf"/><path id="path326" d="M294.6 109.2c-6.4-.9-12.8-1.8-19.3-2.9l-9.5-.9a2365.9 2365.9 0 0 1-1.7-24.8l26.9 2a661 661 0 0 0 3.6 26.6"/><path id="path330" d="m302.6 150.5.8 10.5a921 921 0 0 0-28.7-.5l-4.2-.1a2527.9 2527.9 0 0 1-2.6-28.1c10.5.6 20.9 1.4 31.3 2.3 1 5.3 2.2 10.6 3.4 15.9" fill="#337bbf"/><path id="path334" d="M303.4 161c.7 10 1.2 20.2 1.7 30.5a4294.3 4294.3 0 0 0-33.7-1l-.8-28.5-.1-1.6h4.2c9.5 0 19.1.3 28.7.6" fill="#66acdf"/><path id="path338" d="M294.6 109.2a607.8 607.8 0 0 0 4.6 25.4 1047 1047 0 0 0-31.3-2.3l-2-26.9 9.4 1c6.5 1 12.9 2 19.3 2.8" fill="#0099d6"/><path id="path342" d="M288.3 56.3c-.8-10.6-1.4-21.2-1.9-31.7 10.8.6 21.6 1.2 32.3 1.6.4 10.4.9 20.9 1.5 31.3a1865 1865 0 0 1-31.9-1.2"/><path id="path346" d="M386 58.5a2503 2503 0 0 1-.9-31c12 0 24-.2 35.9-.4v31c-11.7.3-23.4.4-35 .4" fill="#0099d6"/><path id="path350" d="m488.8 25 32-1.5a3574.4 3574.4 0 0 1-1.8 31.6c-10.4.5-20.8 1-31.2 1.3l1-31.4" fill="#66acdf"/><path id="path354" d="M421 58.2V27l34.8-.9-1 31.3-33.7.7" fill="#337bbf"/><path id="path358" d="M351.8 58.2a1423.3 1423.3 0 0 1-1.2-31l34.5.3a2522.1 2522.1 0 0 0 .8 31c-11.3 0-22.7-.1-34-.3"/><path id="path362" d="M320.2 57.5a1491.7 1491.7 0 0 1-1.5-31.3l2.8.2 29.1.8c.3 10.3.7 20.7 1.2 31l-31.6-.7" fill="#66acdf"/><path id="path366" d="m454.9 57.5 1-31.3 33-1.2a3579.6 3579.6 0 0 1-1 31.4 3137.3 3137.3 0 0 1-33 1"/><path id="path370" d="M479.6 258.8a3218.7 3218.7 0 0 0 27.4.2l-.6 19-.4 10.5-27.3.3.9-20.3v-9.7" fill="#337bbf"/><path id="path374" d="M426.6 258a2208.2 2208.2 0 0 0 26.7.6l.1 12a2093.4 2093.4 0 0 1-.5 18 1601.7 1601.7 0 0 1-25-1l-.8-20.8-.5-8.8"/><path id="path378" d="m453.3 258.6 26.3.2v9.7l-1 20.3c-8.5 0-17 0-25.6-.2l.4-18v-12" fill="#337bbf"/><path id="path382" d="M507 259c9.8 0 19.5-.1 29.1-.4v4.7l-1 24.5-29.1.7.4-10.6.6-19"/><path id="path386" d="m507 259 .7-19.3.5-11a1500.3 1500.3 0 0 1 28.7-1.6 2227.7 2227.7 0 0 0-.8 31.5c-9.6.3-19.3.4-29.1.4"/><path id="path390" d="m509.9 200.8.2-2.4 28-.2c-.5 9.6-.9 19.3-1.2 28.9-9.6.4-19.1 1-28.7 1.7.4-9.4 1-18.7 1.7-28" fill="#66acdf"/><path id="path394" d="m307.4 253.9-34.3-1-.8-34.2 34 .9 1.1 34.3" fill="#337bbf"/><path id="path398" d="m339.2 254.9.7 29.7a3527.9 3527.9 0 0 0-31.7-.3 3673.7 3673.7 0 0 0-.8-30.4l31.8 1"/><path id="path402" d="M308.2 284.3a4028.4 4028.4 0 0 0-34.4 0 7990.5 7990.5 0 0 0-.7-31.3l34.3.9.8 30.4" fill="#337bbf"/><path id="path406" d="m408.9 257.5 17.7.5.5 8.8.8 20.7-18.9-1-10.8-.4-.4-29 11.1.4"/><path id="path410" d="m397.8 257 .4 29.1a2857.2 2857.2 0 0 0-28.4-.8c-.1-9.8-.4-19.6-.6-29.3l28.6 1" fill="#337bbf"/><path id="path414" d="m363.8 255.7 5.4.3c.2 9.7.5 19.5.6 29.3l-6-.2-23.9-.5a2404 2404 0 0 0-.7-29.7l24.6.8" fill="#66acdf"/><path id="path418" d="m340 284.6.4 35.5-31.6-.3a3417.6 3417.6 0 0 0-.6-35.5c10.6 0 21.2.2 31.7.3" fill="#66acdf"/><path id="path422" d="m308.2 284.3.6 35.5-34.4-.3-.6-35.2h34.4" fill="#337bbf"/><path id="path426" d="m363.9 285.1 6 .2.4 35.2-6.4-.1-23.5-.2a2546.9 2546.9 0 0 0-.5-35.5c8 0 16 .2 24 .4" fill="#66acdf"/><path id="path430" d="M512 169.5c9.3-.5 18.5-1 27.7-1.2a1947.6 1947.6 0 0 0-1.6 30h-28c.5-9.6 1.2-19.2 2-28.8" fill="#0099d6"/><path id="path434" d="m398.2 286.1.1 6.5.1 28.2-28.1-.3a3180.4 3180.4 0 0 0-.5-35.2l28.4.8" fill="#66acdf"/><path id="path438" d="M428 287.5c8.3.5 16.6.8 25 1.1l-1.3 31.5-23 .5v-16l-.8-17"/><path id="path442" d="m398.2 286.1 10.8.4 19 1 .6 17.2v16l-19.5.2h-10.7l-.1-28.3-.1-6.5" fill="#337bbf"/><path id="path446" d="m272 210.6.3 8.1a2411 2411 0 0 0-33.7-.3l-.4-28.6 33.2.7.6 20"/><path id="path450" d="m270.6 162 .8 28.5a3649.7 3649.7 0 0 0-33.2-.7l-.4-30 32.7.6.1 1.6" fill="#0099d6"/><path id="path454" d="M453 288.6c8.5.2 17 .2 25.7.2a10044 10044 0 0 1-1.5 30.5l-25.5.8a2855.4 2855.4 0 0 0 1.2-31.5h.1" fill="#337bbf"/><path id="path458" d="M274.4 319.5a15520.7 15520.7 0 0 0-34.8-.2l-.3-34.8c11.5-.2 23-.2 34.5-.2l.6 35.2"/><path id="path462" d="m273.1 253-34.1-.7-.4-33.9 33.7.3.8 34.3" fill="#337bbf"/><path id="path466" d="M273.8 284.3c-11.5 0-23 0-34.5.2l-.3-32.2 34.1.7.7 31.3" fill="#337bbf"/><path id="path470" d="M546.7 84a593.3 593.3 0 0 1-29.8 3.7l2-32.6 30-1.5-1.5 23-.7 7.4"/><path id="path474" d="m543.3 119.6.9-8 15.6-.7 12.9-.3a396 396 0 0 0-.2 7.7c0 7.3-.1 14.4-.3 21.5l-30.6 1a1790.7 1790.7 0 0 1 1.7-21.2"/><path id="path478" d="M544.2 111.6a1347 1347 0 0 0 2.5-27.6c6.6-1 13.2-2.1 19.7-3.4l7.8-.5-.3 2.6c-.4 9.3-1 18.5-1.2 28l-12.9.2-15.6.7"/><path id="path482" d="m541.6 140.9 30.6-1.1a1937.8 1937.8 0 0 1-.3 12.1l-.5 15.6c-10.5.2-21.1.4-31.7.8l1.9-27.4" fill="#337bbf"/><path id="path486" d="m506 288.5-1.3 30-27.5.8 1.5-30.5 27.3-.3" fill="#0099d6"/><path id="path490" d="M486.5 90c.5-11.2 1-22.4 1.3-33.6l31.2-1.3-2 32.6a662 662 0 0 1-30.5 2.3" fill="#66acdf"/><path id="path494" d="M539.7 168.3c10.6-.4 21.2-.6 31.7-.8l-.8 27.3v3.2l-32.5.2c.4-10 1-20 1.6-30"/><path id="path498" d="m546.7 84 .7-7.4 1.5-23 27.6-1.5c-.6 9.3-1.4 18.6-2.3 28l-7.8.5a553 553 0 0 1-19.7 3.4" fill="#66acdf"/><path id="path502" d="m535 287.8 32.3-.7a2103 2103 0 0 0-.8 29.7l-33.1.8.7-11 1-18.8"/><path id="path506" d="m538 198.2 32.6-.2c-.3 9.2-.5 18.5-.6 27.8-11 .3-22 .7-33 1.3.2-9.6.6-19.3 1-28.9" fill="#66acdf"/><path id="path510" d="m535 287.8-.9 18.9-.7 10.9-28.7.9 1.3-30 29-.7" fill="#0099d6"/><path id="path514" d="m537 227 33-1.2-.3 12-1 19.8c-10.9.4-21.7.8-32.6 1l.8-31.5"/><path id="path518" d="m536 263.3.1-4.7c10.9-.2 21.7-.6 32.5-1-.5 9.8-1 19.7-1.3 29.5l-32.2.7 1-24.5" fill="#337bbf"/><path id="path522" d="M392.3 165.6a8628.8 8628.8 0 0 0-30.4-1.9 1009 1009 0 0 1-3-23c10.4.8 21 1.4 31.5 1.9l1.9 23"/><path id="path526" d="M366.7 193.8h-2.6c-9.7-.5-19.3-.9-29-1.2a1158.6 1158.6 0 0 1-4.7-30.6c10.5.5 21 1 31.5 1.7a943.4 943.4 0 0 0 4.8 30.1" fill="#66acdf"/><path id="path530" d="m483.8 143 1.5-28.6 30-1.4a3702.5 3702.5 0 0 0-1.6 28.9 18456.5 18456.5 0 0 1-30 1.1"/><path id="path534" d="M358.8 140.7a976.2 976.2 0 0 1-31.5-2.8 1255.5 1255.5 0 0 1-2.8-25.3 799.8 799.8 0 0 0 31.5 2.3c.8 8.6 1.8 17.2 2.8 25.8" fill="#66acdf"/><path id="path538" d="m366.7 193.8 28.4 1.4 1.3 12.3.5 17a1924.5 1924.5 0 0 0-28.8-2c-.4-9.3-.7-18.5-1.2-27.7 0-.3 0-.6-.2-1" fill="#0099d6"/><path id="path542" d="m366.7 193.8.2 1 1.2 27.6a2017.6 2017.6 0 0 0-30.3-1.6l-.8-17.4-1.9-10.8 29 1.1 2.6.1"/><path id="path546" d="M324.5 112.6a1312.6 1312.6 0 0 1-2.4-27.5 3535.6 3535.6 0 0 0 31.5 2.4l2.4 27.4a800 800 0 0 1-31.5-2.3" fill="#0099d6"/><path id="path550" d="M361.9 163.7a2555.4 2555.4 0 0 0-31.5-1.7 1209 1209 0 0 1-3.1-24.1 978.6 978.6 0 0 0 31.5 2.8l3 23" fill="#0099d6"/><path id="path554" d="M421.3 143.5v-27.4c10.6 0 21.3-.3 32-.6l-.6 28.1h-31.4" fill="#0099d6"/><path id="path558" d="m463.2 143.5-10.5.1.6-28.1 32-1.1-1.5 28.6c-6.9.3-13.8.4-20.6.5"/><path id="path562" d="M356 114.9c-1-9.2-1.7-18.3-2.4-27.4 11.2.8 22.4 1.5 33.6 2l1.4 26.5a952.2 952.2 0 0 1-32.6-1.1"/><path id="path566" d="M421.2 90.8c10.9.3 21.8.4 32.7.2l-.6 24.5-32 .6-.1-25.3"/><path id="path570" d="M388.6 116a2040.7 2040.7 0 0 1-1.4-26.5c11.3.6 22.6 1 34 1.3v25.3c-10.8.1-21.7 0-32.6-.1" fill="#0099d6"/><path id="path574" d="m395.1 195.2 13.8.6 14.5.7 1.6 30.3a1840.3 1840.3 0 0 0-28.1-2.4l-.5-17-1.3-12.2" fill="#337bbf"/><path id="path578" d="m395.1 195.2-28.4-1.4a943.4 943.4 0 0 1-4.8-30.1l30.4 1.9c.8 9.8 1.8 19.7 2.8 29.6"/><path id="path582" d="M388.6 116c10.9.2 21.8.2 32.6.1l.1 27.4a797 797 0 0 1-30.9-1 1877 1877 0 0 1-1.8-26.5" fill="#337bbf"/><path id="path586" d="M358.8 140.7A1071.7 1071.7 0 0 1 356 115c10.9.5 21.7.9 32.6 1 .5 9 1.1 17.8 1.8 26.7a1059.5 1059.5 0 0 1-31.6-1.9"/><path id="path590" d="M268 132.3c.7 9.3 1.6 18.7 2.5 28a3451.8 3451.8 0 0 0-32.7-.5l-.4-28.5 16.7.3 13.8.7" fill="#337bbf"/><path id="path594" d="M422 167.4c10.1.6 20.3 1 30.5 1.5V198l-29.1-1.5-.3-5.4-1.1-23.7"/><path id="path598" d="M452.5 169a2314 2314 0 0 1-30.5-1.6l-.6-15.3v-8.6c10.4.2 20.8.2 31.3.1l-.2 18.7v6.6"/><path id="path602" d="M452.5 198v-29a1104.3 1104.3 0 0 0 29.6 1 1085.6 1085.6 0 0 0-1.5 28.3c-9 0-17.9 0-26.8-.2h-1.3" fill="#337bbf"/><path id="path606" d="m452.5 198 1.3.1 26.8.2a1341.7 1341.7 0 0 0-.8 31.7c-8.5.2-16.7.1-25.5-.3l-1.3-.1a5523.3 5523.3 0 0 0-.5-25.4V198" fill="#66acdf"/><path id="path610" d="M422 167.4a6324.6 6324.6 0 0 1-29.7-1.8 1758 1758 0 0 1-1.9-23c10.3.4 20.6.8 31 1v8.5l.6 15.3"/><path id="path614" d="M452.5 169v-6.7l.2-18.7h10.5a1378.3 1378.3 0 0 0 20.6-.6l-.6 11.5c-.5 5.2-.8 10.3-1.1 15.5l-20.8-.6-8.8-.5" fill="#337bbf"/><path id="path618" d="M452.5 198v6.2l.5 25.4a1790.5 1790.5 0 0 0-28-2.8l-1.6-30.3 29 1.5"/><path id="path622" d="m327.3 137.9 3.1 24.1c-9-.4-18-.8-27-1l-.8-10.5-3.4-15.9 2.9.3 25.2 3"/><path id="path626" d="M322 85.1a1389.7 1389.7 0 0 1-1.8-27.6l31.6.7c.5 9.8 1.1 19.5 1.8 29.3a3535.9 3535.9 0 0 1-31.5-2.4"/><path id="path630" d="M353.6 87.5a1275 1275 0 0 1-1.8-29.3l34.1.3 1.3 31a1852.4 1852.4 0 0 1-33.6-2"/><path id="path634" d="M387.2 89.5a2241.9 2241.9 0 0 1-1.3-31l35.2-.3v32.6c-11.3-.2-22.6-.7-34-1.3" fill="#337bbf"/><path id="path638" d="m421.2 90.8-.1-32.6a2753.3 2753.3 0 0 0 33.8-.7l-1 33.5c-11 .2-21.8 0-32.7-.2" fill="#0099d6"/><path id="path642" d="M324.5 112.6a700.4 700.4 0 0 1-29.9-3.4 661 661 0 0 1-3.6-26.5l31 2.4a1312.6 1312.6 0 0 0 2.5 27.5" fill="#0099d6"/><path id="path646" d="M291 82.7a728 728 0 0 1-2.7-26.4c10.7.5 21.3.9 32 1.2A1390.2 1390.2 0 0 0 322 85l-31-2.3"/><path id="path650" d="m485.3 114.4.3-5.1.9-19.3a662 662 0 0 0 30.4-2.3l-1.5 25.3-30.1 1.4" fill="#66acdf"/><path id="path654" d="m515.4 113 4-.2 24.8-1.2-.9 8-1.7 21.3-27.9 1c.5-9.6 1-19.3 1.7-28.9"/><path id="path658" d="m515.4 113 1.5-25.3a592.1 592.1 0 0 0 29.8-3.7 1346.5 1346.5 0 0 1-2.5 27.6l-24.7 1.2-4.1.2" fill="#0099d6"/><path id="path662" d="m485.3 114.4-32 1.1.6-24.5c10.8 0 21.7-.4 32.6-1l-1 19.3-.2 5" fill="#66acdf"/><path id="path666" d="M454.9 57.5a3137.3 3137.3 0 0 0 33-1 4081.4 4081.4 0 0 1-1.4 33.5c-11 .6-21.8 1-32.6 1l1-33.5"/><path id="path670" d="m327.3 137.9-25.2-3-3-.3a605.9 605.9 0 0 1-4.5-25.4 698.8 698.8 0 0 0 30 3.4c.8 8.4 1.7 16.9 2.7 25.3" fill="#337bbf"/><path id="path674" d="M480.6 198.3c.4-9.4.8-18.9 1.5-28.3l16.6.2 13.3-.7-2 28.9h-29.4"/><path id="path678" d="m453 229.6 1.3.1c8.8.4 17 .5 25.5.3v.7c-.2 9.4-.2 18.8-.2 28.1-8.8 0-17.5 0-26.3-.2l-.2-21-.1-8" fill="#337bbf"/><path id="path682" d="M396.9 224.4c9.4.7 18.7 1.5 28.1 2.4a9666.8 9666.8 0 0 1 1.6 31.2 1991.7 1991.7 0 0 1-17.7-.5l-11.1-.4v-1l-1-31.7" fill="#0099d6"/><path id="path686" d="M453 229.6v8l.3 21h-.4l-26.3-.6a9666.8 9666.8 0 0 0-1.6-31.2c9.3.8 18.6 1.8 28 2.8" fill="#337bbf"/><path id="path690" d="M479.8 230a661.5 661.5 0 0 0 16.9-.5l11.5-.7-.5 10.9-.7 19.3a816.8 816.8 0 0 1-10.1-.1 3118.4 3118.4 0 0 1-17.3 0l.1-28.2v-.7" fill="#337bbf"/><path id="path694" d="m513 153.8.7-11.9 27.9-1-1.9 27.4-27.7 1.2c.4-5.2.8-10.4 1-15.7"/><path id="path698" d="m482 170 1.2-15.5.6-11.5a1433.3 1433.3 0 0 0 29.9-1.1l-.6 12a1550.5 1550.5 0 0 1-1 15.6l-13.4.7-16.6-.2" fill="#337bbf"/><path id="path702" d="M479.8 230c.1-10.5.4-21 .8-31.7h29.5l-.2 2.5c-.7 9.3-1.3 18.6-1.7 28l-11.5.7c-5.9.3-11.4.4-17 .5" fill="#0099d6"/><path id="path706" d="m335.1 192.6-15.7-.7-14.3-.4c-.5-10.3-1-20.5-1.7-30.5 9 .2 18 .6 27 1a1158.7 1158.7 0 0 0 4.7 30.6" fill="#337bbf"/><path id="path710" d="m335.1 192.6 1.9 10.8.8 17.4a2122.8 2122.8 0 0 0-31.5-1.2l-1-25-.2-3.1 14.3.4 15.7.7" fill="#337bbf"/><path id="path714" d="M339.1 252.7v2.2a6866.8 6866.8 0 0 0-31.7-1l-1.1-34.3 31.5 1.2c.5 10.6 1 21.3 1.3 32"/><path id="path718" d="m368 222.4 28.9 2 .8 31.7v1l-28.5-1.2a3257 3257 0 0 0-1.1-33.5"/><path id="path722" d="m422 167.4 1 23.6.3 5.4-14.5-.7-13.8-.6a1627.2 1627.2 0 0 1-2.8-29.6l29.7 1.8" fill="#0099d6"/><path id="path726" d="m598.6 225.2.5-27.5 33.1-.3-.1 27.6c-11.2 0-22.3 0-33.5.2"/><path id="path730" d="m603.8 50.4.1-4.3a1613.1 1613.1 0 0 0-.2-27c4.8-.1 9.6-.4 14.3-.6l13.8.4 1.5 24.2.1 5.5h-1.7l-28 1.8"/><path id="path734" d="M599.9 167.2a2898.7 2898.7 0 0 1 32.5 0c0 10 0 20.1-.2 30.2l-33 .3c.1-10.2.4-20.4.7-30.5" fill="#66acdf"/><path id="path738" d="m599.9 167.2.8-28.3 32.1-.6-.4 29a2898.7 2898.7 0 0 0-32.5-.1" fill="#0099d6"/><path id="path742" d="m603.8 50.4 28-1.8h1.6c.2 8.9.3 18 .2 27V79h-30.5c0-9.7.4-19.2.7-28.6" fill="#337bbf"/><path id="path746" d="m603 81.8.1-2.8h30.5l-.4 30.8-31.4.4 1.3-28.4" fill="#337bbf"/><path id="path750" d="m601.8 110.2 31.4-.4-.4 28.5-32 .6 1-28.7"/><path id="path754" d="M598.3 286.5v-29.9c11.2-.3 22.3-.6 33.5-.6v5.3c0 9 .2 17.2.5 25.2a1453 1453 0 0 0-34 0" fill="#337bbf"/><path id="path758" d="M598.6 227.6v-2.4l33.5-.2-.3 31c-11.2 0-22.3.3-33.5.6l.3-29" fill="#337bbf"/><path id="path762" d="M598.6 316.4c-.2-10-.3-19.9-.3-29.9h34l.6 17 .6 13.2a1487.3 1487.3 0 0 0-35-.3" fill="#66acdf"/><path id="path766" d="M603.7 19.2c-.1-10-.3-20-.6-29.9 9 0 18 .3 27 .7.5 9.6 1 19.2 1.7 28.9a590.3 590.3 0 0 0-13.8-.4l-14.3.7" fill="#0099d6"/><path id="path770" d="M578 20.5 550.6 22l.9-31.4 27-.8.2 6.5c0 8-.3 16.1-.5 24.2"/><path id="path774" d="m581.3 20.3-3.2.2c.3-8 .4-16.2.5-24.2l-.2-6.5 3-.1c7.3-.3 14.5-.4 21.7-.4.3 10 .5 19.9.6 29.9l-22.4 1.1" fill="#337bbf"/><path id="path778" d="M205 189.5v29a2803.6 2803.6 0 0 0-35.1.6l.5-29.6H205" fill="#337bbf"/><path id="path782" d="M205 159.4v30a2949.4 2949.4 0 0 0-34.6.1l.5-27.5.1-2.6h34" fill="#337bbf"/><path id="path786" d="m205.4 103.5-.2 5.7v21.6c-11-.1-22-.2-33-.1h-.5l.6-17.3.8-9.4 19-.5h13.3"/><path id="path790" d="M205.1 130.8v28.6a2970.7 2970.7 0 0 0-34.1 0l.7-28.7h33.5"/><path id="path794" d="M204.8 252v32.9l-35.7.7.3-33.8 35.4.1" fill="#337bbf"/><path id="path798" d="M204.8 252a3601.4 3601.4 0 0 0-35.4-.2l.5-32.7 35-.6V252" fill="#0099d6"/><path id="path802" d="M204.8 319.2H169l.2-33.6a7089.7 7089.7 0 0 1 35.7-.7v34.3"/><path id="path806" d="M205.4 103.5H192c-6.3 0-12.6.3-19 .5a683 683 0 0 0 2-25 2211.3 2211.3 0 0 0 31-1.7l-.6 26.2" fill="#66acdf"/><path id="path810" d="M206.4 51a6093.6 6093.6 0 0 1-.5 26.3 2211.3 2211.3 0 0 1-30.8 1.7 1737.5 1737.5 0 0 0 1.7-27.7l18.3-1.2 11.3.8" fill="#337bbf"/><path id="path814" d="m206.8 21.3-.4 29.6-11.3-.8-18.3 1.2c.6-10 1-20 1.4-30h28.6"/><path id="path818" d="M206.8 21.3h-28.6l1-31 27.8-.6a7405 7405 0 0 1-.2 31.6" fill="#0099d6"/><path id="path822" d="M574.2 80c1-9.3 1.7-18.6 2.3-28l27.3-1.6c-.3 9.5-.6 19-.7 28.6h-3c-9 0-17.4.5-26 1" fill="#0099d6"/><path id="path826" d="m574 82.7.2-2.6c8.5-.6 16.9-1.1 25.8-1.1h3.1v2.8l-1.3 28.4-29.1.4c.3-9.4.8-18.6 1.2-27.9" fill="#337bbf"/><path id="path830" d="m577.3 39.3.8-18.8 3.2-.2 22.4-1.1c.2 9 .2 17.9.2 26.9l-.1 4.3-27.3 1.7.8-12.8" fill="#337bbf"/><path id="path834" d="m572.5 118.3.2-7.7 29.1-.4-1 28.7-28.6.9c.2-7 .3-14.2.3-21.5"/><path id="path838" d="M519 55.1a3574.7 3574.7 0 0 0 1.8-31.6l29.7-1.5a1415.3 1415.3 0 0 1-1.6 31.6l-30 1.5" fill="#337bbf"/><path id="path842" d="m576.5 52-27.6 1.6c.7-10.5 1.2-21 1.6-31.6l27.6-1.5-.8 18.8-.8 12.8" fill="#66acdf"/><path id="path846" d="m568.6 257.6 29.7-1v29.9l-31 .6 1.3-29.5" fill="#66acdf"/><path id="path850" d="m571.9 152 .3-12.2 28.5-.9-.8 28.3-28.5.3.5-15.6" fill="#337bbf"/><path id="path854" d="m569.7 237.8.3-12c9.5-.3 19-.5 28.6-.6v2.4a3740.3 3740.3 0 0 0-.3 29l-29.7 1 1.1-19.8"/><path id="path858" d="m570.6 194.8.8-27.3 28.5-.3a4343 4343 0 0 0-.8 30.5l-28.5.3v-3.2" fill="#0099d6"/><path id="path862" d="m522.2-8.8 22.3-.4 6.9-.2a1471 1471 0 0 1-.9 31.4l-29.7 1.5a2089.7 2089.7 0 0 0 1.4-32.3"/><path id="path866" d="M261.2 21.5V23c-9-.5-18.2-1-27.3-1.2 0-10.9.2-21.7.4-32.6L260-11a417 417 0 0 1 1.2 32.6" fill="#0099d6"/><path id="path870" d="m567.3 287 31-.5c0 10 .1 20 .3 29.9-10.7 0-21.4.2-32 .4.1-10 .4-19.8.7-29.7" fill="#337bbf"/><path id="path874" d="m488.8 25 .8-33.5c10.9 0 21.7-.1 32.6-.3a2077.3 2077.3 0 0 1-1.4 32.3l-32 1.5"/><path id="path878" d="M262.7 54.9a1659.5 1659.5 0 0 1-25.2-1.8l-3-.2c-.4-10.4-.5-20.8-.6-31 9.1.2 18.2.6 27.3 1.1l1.5 31.9"/><path id="path882" d="M286.4 24.6a979.6 979.6 0 0 1-.8-35.5l32.2.5c.2 12.2.5 24.4 1 36.6-10.8-.4-21.6-1-32.4-1.6" fill="#66acdf"/><path id="path886" d="m262.7 54.9.7 13.5.7 12.2a3016.1 3016.1 0 0 0-28.3-2l-.7-13.4-.6-12.3 3 .2 25.2 1.8" fill="#0099d6"/><path id="path890" d="m264.1 80.6 1.7 24.8c-9.4-.8-18.9-1.5-28.8-1.7-.3-8.4-.7-16.7-1.2-25a1995.2 1995.2 0 0 1 28.3 2" fill="#66acdf"/><path id="path894" d="m271.8 23.6-10.6-.6v-1.5c.1-11-.5-21.9-1.2-32.6h11.5c4.7 0 9.4 0 14.1.2.1 11.8.4 23.7.8 35.5l-14.6-1" fill="#337bbf"/><path id="path898" d="m321.5 26.4-2.8-.2a1626.7 1626.7 0 0 1-1-36.6h3.5l28.8.6c0 12.3.3 24.6.6 37l-29.1-.8" fill="#0099d6"/><path id="path902" d="m421 27.1-.1-35.8 35.9.3a5952 5952 0 0 1-1 34.6l-34.8.9" fill="#337bbf"/><path id="path906" d="m455.8 26.2 1-34.6h32.8a3135.6 3135.6 0 0 1-.8 33.4l-33 1.2"/><path id="path910" d="m385.1 27.5-.5-36.7a7442.8 7442.8 0 0 0 36.3.5V27l-35.8.4" fill="#337bbf"/><path id="path914" d="M350.6 27.2a1642 1642 0 0 1-.6-37l34.6.6.5 36.7a1765.9 1765.9 0 0 1-34.5-.3" fill="#66acdf"/><path id="path918" d="m570.6 198 28.5-.3a4616.6 4616.6 0 0 0-.5 27.5l-28.6.6c.1-9.3.3-18.6.6-27.8" fill="#66acdf"/><path id="path922" d="m238.6 218.4-33.7.1v-29c11.2 0 22.2.2 33.3.3l.4 28.6"/><path id="path926" d="m237 103.7.2 9.5.2 18.1-24.3-.4-8-.1.1-21.6.2-5.7 29.2.1h2.4" fill="#337bbf"/><path id="path930" d="m237.4 131.3.4 28.5-7.8-.2-25-.2V154l.1-23.1h8l24.3.5" fill="#337bbf"/><path id="path934" d="m237.8 159.8.4 30a3256.8 3256.8 0 0 0-33.2-.3v-30l25 .1 7.8.2" fill="#337bbf"/><path id="path938" d="M239.3 284.5c-11.5 0-23 .2-34.5.4v-33l34.2.4.3 32.2" fill="#337bbf"/><path id="path942" d="m238.6 218.4.4 34a4131.8 4131.8 0 0 0-34.2-.5l.1-33.4h33.7"/><path id="path946" d="M235.8 78.7c.5 8.3 1 16.6 1.2 25l-2.4-.1h-29.2l.5-26.3h1.7c9.4.3 18.8.8 28.3 1.4"/><path id="path950" d="M234 21.8c-9.1-.3-18.2-.4-27.2-.5l.2-31.6 27.3-.5-.3 32.6" fill="#337bbf"/><path id="path954" d="m239.6 319.3-34.8-.1v-34.3l34.5-.4.3 34.8" fill="#66acdf"/><path id="path958" d="m235 65.2.9 13.5-28.3-1.5-1.7.1.5-26.4 28 2 .7 12.3" fill="#337bbf"/><path id="path962" d="m234.5 52.9-28.1-2 .4-29.6c9 .1 18 .2 27.1.5 0 10.3.2 20.7.6 31" fill="#0099d6"/><path id="path966" d="M268 132.3a535.8 535.8 0 0 0-14-.7l-16.6-.3-.2-18a529.5 529.5 0 0 0-.2-9.6c10 .2 19.4.9 28.8 1.7l2.1 26.9" fill="#66acdf"/><path id="path970" d="m21 24.2-.2 31.4a1271.6 1271.6 0 0 1-31.2-1 9120 9120 0 0 1-.3-30.8c10.5.2 21 .4 31.6.4" fill="#337bbf"/><path id="path974" d="M784.6 29.8A3766.3 3766.3 0 0 1 784-.3c11.7.2 23.4.2 35-.2l-.5 30c-11.3.5-22.7.6-34 .3"/><path id="path978" d="m20.5 114-.7 24c-9.6.6-19.3 1-28.9 1.4l-.4-25.4c10 .4 20 .4 30 0"/><path id="path982" d="M20.5 112.6v1.4c-10 .4-20 .4-30 0a9686.4 9686.4 0 0 1-.6-31.7h30.8l-.2 30.3" fill="#66acdf"/><path id="path986" d="m19 165.1-1.1 30-28.3 2.3.2-6.3.8-23.8L6.1 166l12.9-.9" fill="#337bbf"/><path id="path990" d="m16.8 226.1-28.4 2 1.2-30.7 28.3-2.2a13962.8 13962.8 0 0 0-1 31" fill="#337bbf"/><path id="path994" d="M15.8 256.3c-9.5.6-19 1.2-28.5 2l1.1-30.2 28.4-2-1 30.2"/><path id="path998" d="m19.2 158.7-.3 6.4-12.8 1c-5.2.3-10.3.8-15.5 1.2l.5-19.1-.2-8.8c9.6-.4 19.3-.8 29-1.4l-.7 20.7"/><path id="path1002" d="M21 24.2a1331.7 1331.7 0 0 1-31.7-.4L-10.9-8c10.6.3 21.3.4 32 .5l-.2 31.7" fill="#337bbf"/><path id="path1006" d="M20.7 82.3h-30.8l-.3-27.7c10.4.5 20.8.8 31.2 1l-.1 26.7" fill="#337bbf"/><path id="path1010" d="m15 289.6-28.8.8 1.1-32.2 28.5-1.9a5526.2 5526.2 0 0 0-.8 33.3" fill="#66acdf"/><path id="path1014" d="m788.5 228.7 30.3 1.1.4 29.6a1768 1768 0 0 0-30.2-1.3c0-9.7-.3-19.6-.5-29.4"/><path id="path1018" d="m787.1 169.8 30.4.3.8 30a2013 2013 0 0 0-30.4-1.3 5193 5193 0 0 0-.8-29" fill="#337bbf"/><path id="path1022" d="m786.4 89.7-.3-6.9c10.5.2 21 .3 31.4.1l-.1 6.8-.3 20h-30.6l-.1-20"/><path id="path1026" d="M786.7 154.8v-15H817v15.1l.4 15.2a4098.2 4098.2 0 0 1-30.4-.3l-.4-15" fill="#66acdf"/><path id="path1030" d="M786.5 118.3v-8.7H817v30.2h-30.5l-.1-21.5" fill="#0099d6"/><path id="path1034" d="m785.2 55-.6-25.2c11.2.3 22.6.2 34-.3l-.5 25.4h-32.9"/><path id="path1038" d="m786.1 82.8-.9-27.8 32.9-.1a8690.6 8690.6 0 0 1-.6 28c-10.5.2-21 .1-31.4 0"/><path id="path1042" d="m789.3 289.5 30.1.8.1 32-30.1.2-.1-33"/><path id="path1046" d="M788 198.8c10 .3 20.1.8 30.3 1.3l.5 29.7-30.3-1-.6-30"/><path id="path1050" d="m789 258.1 30.2 1.3.2 31a2107.8 2107.8 0 0 0-30.1-1l-.3-31.3"/><path id="path1054" d="m14.4 320.6-29 .6.8-30.8 28.8-.8a4103 4103 0 0 0-.6 31" fill="#337bbf"/><path id="path1058" d="M819-.5A457.2 457.2 0 0 0 841.5-2v29.7a380 380 0 0 1-23 1.8l.5-30"/><path id="path1062" d="M818.5 29.5a380 380 0 0 0 23-1.8v27l-23.4.2.4-25.4" fill="#337bbf"/><path id="path1066" d="m817.5 170.1-.4-15.2v-15.1h24.4V170h-24" fill="#337bbf"/><path id="path1070" d="m818.3 200 5.6.3 17.6.2v30.2l-22.7-.9-.5-29.7" fill="#337bbf"/><path id="path1074" d="m818.3 200-.8-29.9h24v30.4c-4 0-10 0-17.6-.2l-5.6-.2"/><path id="path1078" d="m817.4 89.7.1-6.8c8 0 16-.3 24-.7v27.5H817c0-7 .2-13.5.3-20" fill="#66acdf"/><path id="path1082" d="m818 54.9 23.5-.2v27.5c-8 .4-16 .6-24 .7l.6-28" fill="#66acdf"/><path id="path1086" d="m817 118.3.1-8.6h24.4v30H817v-21.4"/><path id="path1090" d="m819.4 290.3 22 1v30.8l-21.9.2a5486.7 5486.7 0 0 0 0-32" fill="#337bbf"/><path id="path1094" d="m819.2 259.4 22.3 1.4v30.5l-22-1-.3-30.9" fill="#337bbf"/><path id="path1098" d="m818.8 229.8 22.7.9v30a1588 1588 0 0 0-22.3-1.3l-.4-29.6" fill="#337bbf"/><path id="path1102" d="M73.9 222.8a4005.7 4005.7 0 0 0-30.3 1.7l1.2-29.8v-1.3a2160 2160 0 0 1 30.7-1.6 2354 2354 0 0 0-1.6 31" fill="#337bbf"/><path id="path1106" d="m71.9 288-30 .9.8-34c10-.5 20-1 30-1.3L72 288"/><path id="path1110" d="m72.7 253.6-30 1.3 1-30.4 30.2-1.7a2419.5 2419.5 0 0 0-1.2 30.8" fill="#0099d6"/><path id="path1114" d="M87.3 23.2c-11.5.3-23 .6-34.4.7.3-10.4.6-20.9.7-31.4a3573 3573 0 0 0 34.2-.3 1859 1859 0 0 1-.5 31"/><path id="path1118" d="M82.7 108.6v.1L49.4 112l1.5-29.8 33.8-.4c-.5 8.9-1.2 17.8-2 26.8"/><path id="path1122" d="M77.4 161.7a2288.8 2288.8 0 0 0-2 30.1L45 193.4l1.4-30 4.7-.3 26.4-1.4" fill="#337bbf"/><path id="path1126" d="M86.2 55.4c-11.4.3-22.9.4-34.3.4.4-10.6.8-21.2 1-31.9 11.5-.1 23-.4 34.4-.7a1702 1702 0 0 1-1.1 32.2"/><path id="path1130" d="m84.7 81.8-33.8.4 1-26.4c11.5 0 22.9-.1 34.3-.4l-1.5 26.4"/><path id="path1134" d="m79.8 134.3-31.9 2a2567.8 2567.8 0 0 0 1.5-24.3l33.3-3.3-3 25.6"/><path id="path1138" d="m77.9 154.6-.5 7.1-26.4 1.4c-1.6 0-3.1.2-4.7.3l.7-12.8 1-14.3 31.8-2-2 20.3"/><path id="path1142" d="m71.5 319.7-30 .4.5-31.2 29.9-.9a2578.1 2578.1 0 0 0-.4 31.7"/><path id="path1146" d="M732.3 322.3a4402.5 4402.5 0 0 0-1.7-33.5l29.6.2.2 17.3a1552.1 1552.1 0 0 1 .9 16.4H760c-9.5.1-18.6-.1-27.7-.4" fill="#337bbf"/><path id="path1150" d="M718.7-3.9C729.8-3 741-2.2 752-1.6l1 30c-11-.8-22-1.7-32.9-2.7L718.7-4"/><path id="path1154" d="M720.1 25.7c11 1 21.9 1.9 32.8 2.6l1 26.3a1599.6 1599.6 0 0 1-32.2-1 2794.4 2794.4 0 0 1-1.6-28" fill="#337bbf"/><path id="path1158" d="m728.1 168.7 30.1.6.1 2.7.5 26-30-.6a6924.5 6924.5 0 0 0-.6-28.7"/><path id="path1162" d="m728 163-.7-24 30.2.6v2.4l.7 27.3-30-.6-.2-5.7" fill="#66acdf"/><path id="path1166" d="m728.9 197.4 30 .5a8509.5 8509.5 0 0 1 .5 29.8l-30-1-.5-29.3" fill="#0099d6"/><path id="path1170" d="m726.7 122.5-1-13h30.5l1.3 30.1-30.2-.6-.6-16.5"/><path id="path1174" d="m729.8 243.6-.3-16.9 30 1c0 9.9.2 19.7.4 29.6l-30-.4v-13.3" fill="#0099d6"/><path id="path1178" d="m723.5 80.7 31.5 1.2 1.2 27.7h-30.5l-2.2-28.9" fill="#0099d6"/><path id="path1182" d="m730.3 283.9-.3-27c10 0 19.9.2 29.9.4v4.3l.3 27.4a3214.1 3214.1 0 0 0-29.6-.2l-.3-5" fill="#0099d6"/><path id="path1186" d="M721.7 53.6c10.7.5 21.5.8 32.2 1L755 82l-31.5-1.2a2970.8 2970.8 0 0 1-1.8-27" fill="#66acdf"/><path id="path1190" d="M52 55.8a1448.8 1448.8 0 0 1-31.2-.2l.1-31.4c10.7 0 21.4 0 32-.3a3375.3 3375.3 0 0 1-1 32" fill="#337bbf"/><path id="path1194" d="M53.6-7.5A3786.3 3786.3 0 0 1 53 24c-10.6.2-21.3.3-32 .3V-7.5h32.6" fill="#337bbf"/><path id="path1198" d="m41.6 320.1-27.2.5c.1-10.3.3-20.7.6-31l27-.7a3228 3228 0 0 0-.4 31.2" fill="#337bbf"/><path id="path1202" d="m42 288.9-27 .7.8-33.3 27-1.4a3377.4 3377.4 0 0 0-.8 34"/><path id="path1206" d="m52 55.8-1.1 26.4H20.7l.1-26.6c10.4.2 20.7.3 31.1.2" fill="#337bbf"/><path id="path1210" d="m44.8 194.7-1.2 29.8-26.8 1.6 1-31 27-1.7v1.3" fill="#0099d6"/><path id="path1214" d="M50.9 82.2 49.4 112a694 694 0 0 1-29 2l.1-1.4.2-30.3 30.2-.1"/><path id="path1218" d="M48 136.3 19.7 138l.7-24a701 701 0 0 0 28.9-2l-1.5 24.3"/><path id="path1222" d="m47 150.6-.7 12.8c-9.1.5-18.2 1-27.4 1.7l.3-6.4.6-20.7c9.4-.5 18.7-1 28.1-1.7l-.9 14.3" fill="#66acdf"/><path id="path1226" d="m44.9 193.4-27 1.8 1-30.1 27.4-1.7a3221.7 3221.7 0 0 0-1.4 30" fill="#337bbf"/><path id="path1230" d="m42.7 254.9-26.9 1.4 1-30.2 26.8-1.6-.9 30.4" fill="#0099d6"/><path id="path1234" d="m760 261.6-.1-4.3 29.1.8.3 31.4-29.1-.5-.3-27.4"/><path id="path1238" d="m760.4 306.3-.2-17.3 29 .5.2 33-28.1.2-1-16.4" fill="#337bbf"/><path id="path1242" d="m759.4 227.7 29.1 1 .5 29.4-29.1-.8a7008.5 7008.5 0 0 0-.5-29.6"/><path id="path1246" d="M758.3 172v-2.7l28.8.5.8 29-29-.9-.6-26" fill="#337bbf"/><path id="path1250" d="M758.8 198c9.7.1 19.4.4 29.1.8l.6 30-29-1.1a8509.6 8509.6 0 0 0-.7-29.8" fill="#66acdf"/><path id="path1254" d="m757.6 142-.1-2.4 11 .2h18.1l.1 15 .4 15-28.9-.5-.6-27.3" fill="#66acdf"/><path id="path1258" d="m757.5 139.6-1.3-30h30.3v8.7l.1 21.5h-18l-11.1-.2" fill="#66acdf"/><path id="path1262" d="m754 54.6 31.2.4 1 27.8c-10.5-.2-20.8-.5-31.2-.9l-1-27.3"/><path id="path1266" d="m755 82 31.1.8.3 7v19.8h-30.2L755 81.9"/><path id="path1270" d="M752-1.6c10.7.6 21.3 1 32 1.3l.6 30.1c-10.6-.2-21.1-.7-31.7-1.5a6124.5 6124.5 0 0 1-1-29.9"/><path id="path1274" d="M753 28.3c10.5.8 21 1.3 31.6 1.5l.6 25.2a2030.5 2030.5 0 0 1-31.3-.4l-1-26.3" fill="#0099d6"/></g><text id="text4551" style="line-height:1.25;-inkscape-font-specification:DSCLogo;text-align:center" x="368" y="195" font-style="normal" font-variant="normal" font-weight="400" font-stretch="normal" font-size="75" font-family="DSCLogo" text-anchor="middle" fill="#fff" fill-opacity="1" stroke="none"><tspan id="tspan4549" x="368" y="195">Different Strokes</tspan><tspan id="tspan4553" x="368" y="288">Calgary</tspan></text><use id="use1843" xlink:href="logo.svg#Logo-Background" style="--logo-background-color:#29235c;--logo-swimmer-color:#fff" x="650" y="41" width="333" height="333"/></svg>