<svg id="svg2838" xmlns="http://www.w3.org/2000/svg" viewBox="0 0 1093 416"><style id="style33945">@font-face{font-family:DSCLogo;src:url(DSCLogo.woff2)}</style><path id="Background" d="M0 0v416h1093.3V0Z" display="inline" fill="#1d70b8" fill-opacity="1" fill-rule="nonzero" stroke="none" stroke-width="1"/><g id="Swimmer-and-Pool" display="inline"><g id="Water-Background" display="inline"><path id="path3044" d="M886.4 243.6c-90.8 5.4-182-.7-272.6 10.2-78.5 9.1-156-18-234.6-6.5C264.6 264 149 240 34.2 253c-17 3.7-27.6 5.4-34.2 7v156h1093.3V260.5c-60.3-4.5-120.8-7.5-180.8-15.9-8.7-.8-17.4-1.1-26-1z" display="inline" fill="#56bfcb" fill-opacity="1" fill-rule="nonzero" stroke="none" stroke-width="1"/><path id="path3054" d="M960.4 264c-53.4.4-105.5 15-157.6 25.2-31.7 18.7 52 24 68.3 28.8 73.7 13.4 148.2 1.1 222.2-.7v-43.5a1018 1018 0 0 0-132.9-9.8zm-934 11c-12.4 0-23 1.7-26.4 10.2V301l.2.8a82 82 0 0 1-.2 13V329c1.2 6.9 5.6 10 18.7 3 53.8-10.8 109.9-20.6 158.6-46.5-25-16.2-76.7-5.8-109.5-10-11 2.3-27.4-.3-41.4-.4zm293.8 3.7c-95.4-1.3-174.4 72.1-270.4 67.5 18.9 20.6 61 20.7 89.8 23.3 74.1 1.7 146.5-19.5 220.8-16.4 126.6-2 253 12.6 379.3 15.9-32.6-14.4-83.4-13.7-122.1-24.2a730.4 730.4 0 0 1-151.2-42.5 463.2 463.2 0 0 0-146.2-23.6Zm679.6 63c-62.9-.9-124.7 11.9-184.5 30.6C762 387.7 709.2 404 655 416h438.2v-71a811 811 0 0 0-81-3l-12.5-.4z" display="inline" opacity="1" fill="#a9dbe9" fill-opacity="1" fill-rule="nonzero" stroke="none" stroke-width="1"/><path id="path3064" d="M461.4 287.8c-82.7.9-164 27.1-247.2 17.7-17 2.9-89.6-20.4-48-1.1 81 36.3 172.3 23.8 256.6 8.1 50.6-6.5 102.2-12 153-3.9-35.2-17.3-75.7-20.3-114.4-20.8zm463.1 75.7c-113.8 1.1-223.6 58.8-338.1 34.7-20-6.3-35.7-12.7-8.9 3.1a101 101 0 0 0 51.3 14.7H661c9.8-.3 19.6-.5 29.2 0h41.4c20.9-.6 41.6-2.5 61.9-8.6 71.2-16 143.5-37.6 217.3-29.5a242.6 242.6 0 0 0-86.2-14.4Zm-820.3 18.4c-17.6.6-52.2 9.7-29 9.2 36.9.4 71.4 15.8 106.1 24.9h65c-44.1-15.4-88.2-34.2-136-33.8-.7-.2-1.7-.2-2.8-.3h-3.3z" display="inline" fill="#408f98" fill-opacity="1" fill-rule="nonzero" stroke="none" stroke-width="1"/><path id="path3136" d="M535.3 273.3h-1.6c-20 .6-11.8 19.6 9.4 11.3 13.9 4.7 74.3-.8 30.7-4-11.2-1.5-21.5-7.7-33-6.8-2-.3-3.9-.5-5.5-.5zm503.6 23.7c-36 .5-72 18-107.3 3.5 21 20 61.4 3.5 90.2 5.9 21.2-6 63.5 13.6 71.5-3.7a191.2 191.2 0 0 0-54.4-5.7zM194 331.3c-45-.7-89.2 14.7-134.2 9 47 20.7 99.6-9 149 .9 28 4.3 60 10.3 86.3 5.2-34-3.2-67-14.5-101-15zm218.4 41.3a70 70 0 0 0-4.9.2c-21.6 1.5-61 3.8-71.4 12.3 38.4-4.3 77.2-3.7 115.6 3.3 19.9 3.6 84.8-8.4 30.7-5.1-24 .5-46-11-70-10.7zm504 35.8H914c-34.5 7.8-69.6-1.8-103.9 4.9-4.8 1.6-4.8 2.4-2.3 2.7h15.3c6.6-.2 13-.4 16 0h113.4c-12-3-23.6-7.4-36-7.6zm55.5 4c-11 1.5-10.3 3-6.9 3.6h7c2.3-.5 3.3-1.6-.1-3.5z" display="inline" fill="#b3deeb" fill-opacity="1" fill-rule="nonzero" stroke="none" stroke-width="1"/></g><g id="Swimmer"><path id="path3160" d="M409 191c-28-.6-47.8 14.7-61.9 39-18.7 32.2-37.5 98.5-40.5 100.9-2.9 2.3-29.3 3.5-42.2 11.1-13 7.7-15.9 9.4-21.7 8.3-5.9-1.2-19.4-9.4-24.7-7.7-5.3 1.8-3 8.2-3 8.2s-5.8-.5-6.4 3.6a7.3 7.3 0 0 0 2.4 6.4s-3 4.7 4 9.4c7.1 4.7 33 17.6 43 18.2 10 .6 41 3.5 76.2-33.4 35.2-37 67.5-58.1 81-84.6 0 0 18.8 48.2 50.5 72.2 43.9 6.4 68.7 10.4 111.3-2.9 0 0-24.5-23.5-33.9-41.7-9.3-18.2-58-85-103.2-101a101.8 101.8 0 0 0-31-6zm214 71.8c-11.8 0-8.8 31.7-8.8 31.7l18.7-13.5s1.8-18.2-10-18.2zm16.6 27.8c-2.3 0-4.6.1-7 .4-24.9 3-40 48.8-40 48.8v3.3l103.1 5.3s4.1-.5-6-23.8a54.2 54.2 0 0 0-50.1-34z" fill="#f6aa7f" fill-opacity="1" fill-rule="nonzero" stroke="none" stroke-width="1"/><path id="path3174" d="M421.7 255.8c-2.4 8.8-6.5 14.6-6.5 14.6s18.8 48.2 50.5 72.2c19.6 1.9 39.1 4.6 58.7 7l-1.8-2.3c-62.2-24-101-91.5-101-91.5Zm222.8 18c-.9 0-1.6 0-2.2.2-8.8 2.3-18.2 7.6-37.5 25.8a64.2 64.2 0 0 0-21.2 37l-2.3 3.5 2.3 2.3 9 .4v-3.2s15.1-45.9 40-48.8a54.2 54.2 0 0 1 57.1 33.6c3 6.7 4.7 11.5 5.7 15l16.8-6.4-2.4-38.1s-51.6-20.6-65.3-21.3zm-429.4 77s-2.3 0-2.7.3a45 45 0 0 0 20 11.6c11.4 3 26.2-.3 28.8-2.4 2.7-2-1.5-.7-1.5-.7s-9.7 3.3-20 2.1a73.6 73.6 0 0 1-24.6-10.9zm-4.1 10-.6 1.2s1.2.9 15.3 8.5c14 7.6 27 7.6 32.8 7.3 7.2-.3 8.2-2.9 6.2-3.8-2-.9-5.2 2-18.2 1-11.5-1.1-35.5-14.2-35.5-14.2z" display="inline" opacity="1" fill="#d6946f" fill-opacity="1" fill-rule="nonzero" stroke="none" stroke-width="1"/><path id="path3208" d="M679.3 256c-31 .5-47 16.8-47 16.8l1.2 4.7a102 102 0 0 1 58.7 26.4c14.7 13.5 13.5 31.1 13.5 31.1l11.2-2.3h10.5l19.4.5c2.3-23.4-5.3-68-48.7-75.7-6.8-1.2-13-1.6-18.8-1.5zm-50.4 21.4c-1.1 0-2.6.2-4.5 1-5 2-4.4 7.3-4.4 7.3 2.1.8 5 5.4 6.7 8.5-2.2 1.6-4.2 3.8-4.6 6.5-1.2 7.3 11.1 22.6 15.2 25 3.5 2 10.5 2.8 15.9.9 1 1.1 5.7 6.7 6 11.6a25.5 25.5 0 0 0-3.8 8.6l10.1 1.7 19.5-4.6a75.8 75.8 0 0 0-7.8-8.8c-3-2.8-5.1-3.9-7.2-3.9-1.9 0-3.6 1-5.7 2.4-.6-2.4-2.2-6.7-6.4-9.6 4-2.8 5.7-5.3 3-11.9-3.3-7.6-8.6-17.6-16.8-21.4a9 9 0 0 0-4-1 36.4 36.4 0 0 0-8.3-11.6s-1-.7-2.9-.7z" fill="#1d1d1b" fill-opacity="1" fill-rule="nonzero" stroke="none" stroke-width="1"/><path id="path3252" d="M640.6 298h-.4a8 8 0 0 0-3.4.8s-5.4 1.9-6 5.4c-.6 4 6.3 12.6 8.6 14 2.3 1.3 7.3 1.7 10.4-.2 3.1-2 4.6-3.1 2.8-7.4-1.8-4.3-4.8-9.9-9.4-12-.9-.4-1.8-.6-2.6-.6z" fill="#575756" fill-opacity="1" fill-rule="nonzero" stroke="none" stroke-width="1"/></g><g id="Water-Foreground" display="inline"><path id="path3264" d="M728.4 331.3h-4.7c-18.3-.4-34 12.3-52.5 11.7-31.1 1.7-61.8-5-92.8-6.3-17.3 2.7-34.6 8.7-52.4 6-20.7-2.6-41.7-9.4-62.6-3.6a341.3 341.3 0 0 1-47.3 6.2c11 7 27 9.8 40.8 9 19.4-2 39.1-5.5 58.5-1 25.9 4 51.3-4.1 76.7-7 36-.3 71.8 17.4 107.6 5.9 26.6-9.2 53.9 2.4 80.9 2.4 19.1.7 40-.7 56.6-10.1-12.2-1-27.2 6.1-41 1.4-22.7-4-44.4-14-67.8-14.6z" fill="#b3deeb" fill-opacity="1" fill-rule="nonzero" stroke="none" stroke-width="1"/></g></g><path id="text19282" style="line-height:1.25;-inkscape-font-specification:DSCLogo;text-align:end" d="M835.8 48.6c-4.8 0-8.7 1.6-11.9 4.6-3 2.8-4.6 6.3-4.6 10.2l.3 2.5 1.2 5.3c1.2 5 3.3 12 6 21.4.6 2.5.8 4.2.8 4.7 0 2-.7 3.5-2.2 5a7.4 7.4 0 0 1-5.2 2h-.3c-1.9 0-3.5-.6-4.9-2l-1-1.2-5.2 5.9 1 1.2c2.6 2.8 5.8 4.3 9.8 4.3 4.7 0 8.6-1.6 11.8-4.7 3-2.8 4.7-6.3 4.7-10.2a23 23 0 0 0-1-5.5l-6.4-23.4-.8-3.6-.1-1.4c.3-.7.6-3.5 2.1-4.9a7.5 7.5 0 0 1 5.3-2.1h.3c1.8 0 3.4.6 4.9 2l1 1.2 5.3-5.9-1.1-1.2a12.8 12.8 0 0 0-9.8-4.2zm-258.5 1.1V111h7.5c8.8 0 16.1-3.7 21.7-8.9a30.3 30.3 0 0 0 8.2-21.6c0-8.4-2.6-15.9-8-21.9a32 32 0 0 0-22.8-8.9zm7 6.4c2.8 0 5.5.5 7.8 1.4a24.3 24.3 0 0 1 15.4 23c0 6.8-2.3 12.5-7.1 17.3a22.4 22.4 0 0 1-16 7.1zm336 9.3A23 23 0 0 0 897 88.8c0 6.4 2.2 12 6.7 16.5a22 22 0 0 0 16.6 6.9c7 0 12.3-2.4 16.8-6.9a22.3 22.3 0 0 0 6.6-16.5 22.9 22.9 0 0 0-23.4-23.4zm107 .7a12 12 0 0 0-8.5 3.2 9.9 9.9 0 0 0-3.3 7.4l.3 1.7.8 3.8 4.2 15.3c.5 1.7.7 3 .7 3.4 0 1.3-.6 2.4-1.6 3.4s-2.2 1.6-3.8 1.6h-.2c-1.3 0-2.5-.5-3.4-1.5l-.8-.8-2.5 2.8v-1.3h-21v-7.3h6.7v-5.6H988V72.6h21V67h-26v43.7h26V109a9 9 0 0 0 6.7 2.7 12 12 0 0 0 8.4-3.3 10 10 0 0 0 3.3-7.3c0-.8-.2-2-.7-4l-4.6-16.7-.5-2.5-.1-1c.2-.5.4-2.5 1.5-3.5 1-1 2.3-1.6 3.8-1.6h.2c1.3 0 2.5.4 3.5 1.5l.8.8 3.7-4.1-.8-1a9 9 0 0 0-7-3zM617 67v43.7h5V67Zm8.6 0v5.6H639V92h-8v5.6h8v13h5V67Zm19.2 0v43.7h5.1v-13h8v-5.6h-8V72.6h12v38.1h26.2v-5.6h-21v-7.3h6.7v-5.6H667V72.6h21V67h-24.7zm44.4 0v43.7h5v-13H706l8.3 13h5.8l-8.4-15A15 15 0 0 0 720 82c0-4-1.5-7.6-4.3-10.6a13.1 13.1 0 0 0-9.1-4.3V67zm32.2 0v43.7h26v-5.6h-21v-7.3h6.8v-5.6h-6.8V72.6h21V67zm48.5 0v30.8L752 67.4h-2.8v43.3h5V80.4l18 30.3h3V67Zm7 0v5.6h6.7v38.1h5V72.6h6.7V67zm67 0v5.6h6.7v38.1h5V72.6h6.8V67zm20.4 0v43.7h5v-13H881l8.3 13h5.8l-8.4-15a15 15 0 0 0 8.5-13.7c0-4-1.5-7.6-4.3-10.6a13.1 13.1 0 0 0-9.1-4.3V67zm81.9 0v43.7h4.5L963 89.2c2.8.9 5.4 2.5 7.7 4.8a18 18 0 0 1 5.5 13.3v3.4h5v-3.2a22.6 22.6 0 0 0-15-21.8L977 67h-5.8l-20 34V67Zm-25.8 4.3c5 0 9.2 1.7 12.8 5.1 3.5 3.5 5.2 7.6 5.2 12.4 0 4.9-1.7 9-5.2 12.4a17.6 17.6 0 0 1-12.8 5c-5 0-9.2-1.6-12.7-5a16.5 16.5 0 0 1-5.4-12.4c0-4.8 1.8-8.9 5.4-12.4 3.5-3.4 7.7-5.1 12.7-5.1zm-226.1 1.3h11.1c2.6 0 4.8 1 6.7 2.8a9.4 9.4 0 0 1 0 13.8c-2 1.9-4.4 2.9-7.3 2.9h-10.5zm175 0h11.2c2.6 0 4.8 1 6.7 2.8a9.4 9.4 0 0 1 0 13.8c-2 1.9-4.4 2.9-7.3 2.9h-10.6zm-63.5 56.8a30.8 30.8 0 0 0-30.9 31.3 30.6 30.6 0 0 0 31.6 30.8 30.8 30.8 0 0 0 30.1-24.3l.5-2h-7.6l-.3 1.2a22.8 22.8 0 0 1-8.4 12.5 23 23 0 0 1-17.6 4.7 23 23 0 0 1-15.8-8.8 21.7 21.7 0 0 1-4.8-17 22 22 0 0 1 9-15.4 23 23 0 0 1 17.5-4.7c2.6.4 5 1 7.4 2.2l1 .5 6-5.9-2-1.1a31.9 31.9 0 0 0-15.7-4zM851 144l-16.6 46.7h5.5l4.9-13h12.5l5 13h5.4zm97.6 0L932 190.8h5.5l5-13h12.4l5 13h5.4zm-37.7 2.5a21.8 21.8 0 0 0-22 22.4 22 22 0 0 0 4.5 13.3 22 22 0 0 0 18 8.6 22 22 0 0 0 21.5-17.2l.3-1.5h-17.7v5.7h10.2c-1 1.8-2.4 3.3-4.1 4.7a15.7 15.7 0 0 1-12.6 3.6c-4.6-.7-8.3-2.8-11.2-6.7a15.9 15.9 0 0 1-3.4-12.4 16 16 0 0 1 6.3-11.1 16.4 16.4 0 0 1 12.5-3.4c1.9.2 3.7.8 5.4 1.6l.7.4 4.2-4.3-1.3-.8a23.6 23.6 0 0 0-11.3-2.9zm-41.8.4v43.7h18.5V185H874v-38zm96.4 0v43.7h5v-13h11.7l8.2 13h5.9l-8.4-15a15 15 0 0 0 8.5-13.7c0-4-1.5-7.6-4.3-10.6a13.1 13.1 0 0 0-9.2-4.3v-.1zm30.3 0 17.3 29.3v14.4h5.5v-14.4l17.3-29.3h-5.8l-14.2 25-14.2-25zm-25.3 5.6h11.2c2.6 0 4.8 1 6.7 2.8a9.4 9.4 0 0 1 0 13.8c-2 1.9-4.5 2.9-7.3 2.9h-10.6zM851 160l4.3 12h-8.5zm97.6 0 4.3 12h-8.5z" font-style="normal" font-variant="normal" font-weight="400" font-stretch="normal" font-size="64" font-family="DSCLogo" text-anchor="end" display="inline" fill="#fff" fill-opacity="1" stroke="none"/></svg>