<svg xmlns:xlink="http://www.w3.org/1999/xlink" xmlns="http://www.w3.org/2000/svg"><style>@font-face{font-family:DSCLogo;src:url(DSCLogo.woff2);font-family:DSCLogo;src:url(DSCLogo.woff2)}</style><defs><symbol id="Logo" viewBox="0 0 564 412"><g class="Rainbow"><path class="Rainbow-Red" d="M.1 121.7s43 58.3 123.8 93.8l-10.8-35C42.3 156.7 0 121.7 0 121.7Z" fill="#e30613" transform="translate(35 169.3)"/><path class="Rainbow-Orange" d="m113 180.5 11 35a313.9 313.9 0 0 0 105.7 26l-12.6-40.7a406.6 406.6 0 0 1-104-20.3z" fill="#f39200" transform="translate(35 169.3)"/><path class="Rainbow-Yellow" d="M313 195.1a401 401 0 0 1-96 5.7l12.7 40.7c29.3 2 61.1 0 95.5-7.4z" fill="#ffed00" transform="translate(35 169.3)"/><path class="Rainbow-Green" d="M400.8 162.9a265 265 0 0 1-87.8 32.2l12.2 39a299 299 0 0 0 87.8-32c-4.1-13-8.2-26-12.2-39.2z" fill="#009640" transform="translate(35 169.3)"/><path class="Rainbow-Blue" d="M477.5 95.3c-18.9 24-44 48.4-76.7 67.6l12.2 39.3a222.2 222.2 0 0 0 76.4-68.6z" fill="#1d70b8" transform="translate(35 169.3)"/><path class="Rainbow-Purple" d="M528.6 0s-13 47-51 95.3l11.8 38.3C533.6 68.9 528.6 0 528.6 0Z" fill="#662383" transform="translate(35 169.3)"/></g><g class="Water"><path class="Water-Top-Wave" d="M0 0s62.1 163.6 187.5 163.6c68 0 150.6-45.9 224.6-84 62.2-32.3 112.3-22.7 112.3-22.7s-36-25.6-104.8-14.8c-97.3 15.2-176 71-261.3 68.6C72.7 108.3 0 0 0 0" fill="#54c3ea" transform="translate(0 148.4)"/><path class="Water-Bottom-Wave" d="M165.6 180.6s69.5 1.7 130-21.3c47.6-18 73.7-40.2 136-70 40-19 74.1-16.9 74.1-16.9s-28.4 76-132.8 111.6c-127.3 43.3-207.3-3.3-207.3-3.3" fill="#f4aab9" transform="translate(0 148.4)"/></g><g class="Swimmer" fill="var(--logo-swimmer-color)"><path class="Swimmer-Head" d="M251.4 102a41 41 0 0 1-41.4 40.8 41 41 0 0 1-41.2-40.8 41 41 0 0 1 41.3-40.7 41 41 0 0 1 41.4 40.7" transform="translate(132.2)"/><path class="Swimmer-Body" d="M0 230.2s50-10.4 68.2-52c20.6-46.9 8.6-111.8 58.6-154.4C180.1-22 253.4 12.4 253.4 12.4s-98 .7-108 78c-8.3 63.6 68.6 98 68.6 98-40.4 11.6-87.4 37.6-127.2 42.7-40.8 5.3-51 3.3-86.8-1" transform="translate(132.2)"/></g></symbol><symbol id="Logo-in-Circle" viewBox="0 0 672 672"><circle class="Background" fill="var(--logo-background-color)" cx="336" cy="336" r="336"/><use xlink:href="images.svg#Logo" height="412" width="564" x="49" y="158"/></symbol><symbol id="Banner-Arch" viewBox="0 0 1093 413"><rect width="100%" height="100%" fill="#1d1d1b"/><path d="M0 0v381h1093.3V0Z" fill="url(images.svg#gradientWall)" filter="url(images.svg#filterAntiBanding)"/><g class="backgroundFloor" id="backgroundFloor" clip-path="url(images.svg#selfClipPathbackgroundFloor)"><path d="M0 381v32h1093.3v-32z" fill="url(images.svg#gradientFloor)"/></g><path d="m102.5 381-21 31.7h29.8l12.5-31.7z" fill="#a10013"/><path d="m131.4 381-8.7 31.7h28.4l1.7-31.7z" fill="#b15300"/><path d="m160.3 381 1.8 31.7H191l-9.3-31.3v-.4z" fill="#bdae00"/><path d="m189.3 381 12.3 31.7h28l-19.2-31.5v-.2z" fill="#05740f"/><path d="M217.8 381v.2l22 31.5h27.8L239.3 381z" fill="#195488"/><path d="m247.1 381 31.3 31.7h27.5L268.6 381z" fill="#4d1761"/><path d="M406 114.4a159.6 159.6 0 0 0-159.4 159.4V381H268V273.8c0-76.2 62-138 138.1-138h530.8a138.2 138.2 0 0 1 135.2 138V381h21.3V273.8c0-86.8-69.7-157.7-156.2-159.4h-531z" fill="#662383"/><path d="M0 28.4v21.3h10a92.9 92.9 0 0 1 92.7 92.8v238.3l-.4.6h21.4l.3-.8V142.5c0-63-51.2-114.1-114-114.1Z" fill="#e30613"/><path d="M160.3 0v381h21.3V0Z" fill="#ffed00"/><path d="M0 .7V22h15.3c64 0 116.2 52.1 116.2 116.2v242.5l-.2.6h21.5V138.2C152.8 62.4 91 .7 15.3.7Z" fill="#f39200"/><path d="M402.1 54.7c-117.5 0-213 95.6-213 213v112.9l.3.8h21V267.7A192 192 0 0 1 402 76h691.2V54.7Z" fill="#009640"/><path d="M404.3 84.5A186.7 186.7 0 0 0 217.8 271v110.2h21.7l-.3-.4V271c0-91 74-165.1 165.1-165.1h689V84.5Z" fill="#1d70b8"/><text x="352" y="288" font-size="56" font-family="DSCLogo" fill="#fff">Different Strokes Calgary</text></symbol><symbol id="Bootstrap" viewBox="0 0 118 94"><path fill-rule="evenodd" clip-rule="evenodd" d="M24.5 0C17.8 0 12.8 5.9 13 12.3c.2 6.1 0 14-2 20.6C9 39.4 5.5 43.5 0 44v6c5.5.5 9 4.6 11 11.1a66 66 0 0 1 2 20.6A11.8 11.8 0 0 0 24.5 94h69c6.7 0 11.7-5.9 11.5-12.3a66 66 0 0 1 2-20.6c2-6.5 5.5-10.6 11-11.1v-6c-5.5-.5-9-4.6-11-11.1a66 66 0 0 1-2-20.6C105.2 5.9 100.2 0 93.5 0h-69zM80 57.9C80 66.7 73.4 72 62.5 72H44a2 2 0 0 1-2-2V24a2 2 0 0 1 2-2h18.4c9.1 0 15 5 15 12.5 0 5.3-4 10-9 10.9v.2c7 .8 11.6 5.6 11.6 12.3zM60.5 28.3H50v15h9c6.8 0 10.6-2.8 10.6-7.8 0-4.6-3.2-7.2-9-7.2zM50 49.2v16.5h11c7.2 0 11-3 11-8.3 0-5.4-4-8.2-11.5-8.2H50z"/></symbol><symbol id="Facebook" viewBox="0 0 160 160"><path d="M72 0C32.4 0 0 32.4 0 72c0 35.6 26 65.2 60 71.2l.4-.3-.4-.1V92H42V72h18V56c0-18 11.6-28 28-28 5.2 0 10.8.8 16 1.6V48h-9.2C86 48 84 52.4 84 58v14h19.2L100 92H84v50.8h-.4l.4.4c34-6 60-35.6 60-71.2 0-39.6-32.4-72-72-72Z"/></symbol><symbol id="Instagram" viewBox="0 0 160 160"><path d="M80 0c18.5.7 38.2-2.2 55.6 5.6a44.1 44.1 0 0 1 23.6 39.7c1.4 22 .6 44.3.4 66.4-.4 15-5.7 31.1-19 39.7-16.7 11-37.4 7.7-56.3 8.5-17-.1-34 .7-50.7-2.2a42.2 42.2 0 0 1-32-35.8C-1.3 102.7.5 83.2 0 64c0-17-.4-36.7 12.6-49.7A48.7 48.7 0 0 1 48.8.4C59.2-.2 69.6.1 80 0Zm32.3 14.9c-24-.6-48-1.1-71.8.6-12 1.6-23.1 11-24.5 23.4-2.7 16-1 32.5-1.5 48.8.2 13.1-.9 26.7 3 39.4a29.7 29.7 0 0 0 28.7 17.7c22 1.3 44 .6 66 .3 11.6-.2 24.7-4.8 29.4-16.5 5.5-13 3.2-27.6 3.8-41.4-.2-17.5 1.3-35.2-2.3-52.4a29.4 29.4 0 0 0-28-19.8l-2.8-.1zM80 106.6c17.3.7 31.4-18.7 25.4-35-4.7-15.4-24.8-23.4-38.7-14.9A26.7 26.7 0 0 0 80 106.6zm0-67.7c22-.7 42 19.5 41.1 41.6A41.6 41.6 0 0 1 82.7 121a41.6 41.6 0 0 1-43.3-34.2 41.5 41.5 0 0 1 40.6-48zm52.2-1.6c.7 10.3-15.9 13.3-18.7 3.2-3-8.3 7.3-16.6 14.5-11.2a9.6 9.6 0 0 1 4.2 8z"/></symbol><symbol id="Twitter" viewBox="0 0 160 160"><path d="M160 30.4a65.7 65.7 0 0 1-18.8 5.2 33 33 0 0 0 14.4-18.2 65.5 65.5 0 0 1-20.9 8C99.5-2.1 73 29.3 78.8 55.4A93.2 93.2 0 0 1 11.1 21a33 33 0 0 0 10.2 43.8 32.7 32.7 0 0 1-14.9-4v.4a32.8 32.8 0 0 0 26.4 32.1c-5.1 1.3-10 1.5-14.9.6a32.8 32.8 0 0 0 30.7 22.8A65.3 65.3 0 0 1 0 130.3c76.1 45.8 149.8-22.7 143.6-82.9 6.4-4.6 12-10.4 16.4-17z"/></symbol><linearGradient class="gradientWall" gradientTransform="rotate(90)" id="gradientWall"><stop offset="1%" stop-color="#1d1a100d"/><stop offset="100%" stop-color="#3a3b39FF"/></linearGradient><linearGradient class="gradientFloor" gradientTransform="rotate(90)" id="gradientFloor"><stop offset="10%" stop-color="#1f1f100d"/><stop offset="100%" stop-color="#222220FF"/></linearGradient><clipPath class="selfClipPathbackgroundFloor" id="selfClipPathbackgroundFloor"><use xlink:href="images.svg#backgroundFloor"/></clipPath><filter class="filterAntiBanding" color-interpolation-filters="sRGB" x="-20%" y="-20%" width="140%" height="140%" id="filterAntiBanding"><feGaussianBlur stdDeviation="5" in="SourceGraphic"/></filter></defs><use xlink:href="images.svg#Banner-Arch"/></svg>